  0
SECTION
  2
HEADER
  9
$ACADVER
  1
AC1009
  9
$FILLMODE
 70
0
  9
$EXTMIN
 10
-0.323418
 20
-0.279331
 30
0.000000
  9
$EXTMAX
 10
2.412500
 20
0.812500
 30
0.000000
  0
ENDSEC
  0
SECTION
  2
TABLES
  0
TABLE
  2
LTYPE
 70
1
  0
LTYPE
  2
CONTINUOUS
 70
64
  3
Solid line
 72
65
 73
0
 40
0
  0
ENDTAB
  0
TABLE
  2
LAYER
 70
255
  0
LAYER
  2
17
 70
64
 62
110
  6
CONTINUOUS
  0
LAYER
  2
18
 70
64
 62
110
  6
CONTINUOUS
  0
LAYER
  2
19
 70
64
 62
53
  6
CONTINUOUS
  0
LAYER
  2
20
 70
64
 62
53
  6
CONTINUOUS
  0
LAYER
  2
21
 70
64
 62
7
  6
CONTINUOUS
  0
LAYER
  2
23
 70
64
 62
53
  6
CONTINUOUS
  0
LAYER
  2
24
 70
64
 62
53
  6
CONTINUOUS
  0
LAYER
  2
45
 70
64
 62
253
  6
CONTINUOUS
  0
LAYER
  2
51
 70
64
 62
53
  6
CONTINUOUS
  0
ENDTAB
  0
ENDSEC
  0
SECTION
  2
BLOCKS
  0
BLOCK
  8
0
  2
RECT
 70
64
 10
0.000000
 20
0.000000
 30
0.000000
  3
RECT
  0
SOLID
  8
0
 10
-0.500000
 20
-0.500000
 30
0.000000
 11
0.500000
 21
-0.500000
 31
0.000000
 12
-0.500000
 22
0.500000
 32
0.000000
 13
0.500000
 23
0.500000
 33
0.000000
  0
ENDBLK
  8
0
  0
BLOCK
  8
0
  2
PIE
 70
64
 10
0.000000
 20
0.000000
 30
0.000000
  3
PIE
  0
CIRCLE
  8
0
 10
0.000000
 20
0.000000
 30
0.000000
 40
0.500000
  0
ENDBLK
  8
0
  0
BLOCK
  8
0
  2
OCTAGONP
 70
64
 10
0.000000
 20
0.000000
 30
0.000000
  3
OCTAGONP
  0
POLYLINE
  8
0
 66
1
 10
0.000000
 20
0.000000
 30
0.000000
 40
0.000000
 41
0.000000
 70
1
  0
VERTEX
  8
0
 10
-0.500000
 20
-0.207107
 30
0.000000
  0
VERTEX
  8
0
 10
-0.500000
 20
0.207107
 30
0.000000
  0
VERTEX
  8
0
 10
-0.207107
 20
0.500000
 30
0.000000
  0
VERTEX
  8
0
 10
0.207107
 20
0.500000
 30
0.000000
  0
VERTEX
  8
0
 10
0.500000
 20
0.207107
 30
0.000000
  0
VERTEX
  8
0
 10
0.500000
 20
-0.207107
 30
0.000000
  0
VERTEX
  8
0
 10
0.207107
 20
-0.500000
 30
0.000000
  0
VERTEX
  8
0
 10
-0.207107
 20
-0.500000
 30
0.000000
  0
SEQEND
  8
0
  0
ENDBLK
  8
0
  0
BLOCK
  8
0
  2
SQUAREP
 70
64
 10
0.000000
 20
0.000000
 30
0.000000
  3
SQUAREP
  0
SOLID
  8
0
 10
-0.500000
 20
-0.500000
 30
0.000000
 11
0.500000
 21
-0.500000
 31
0.000000
 12
-0.500000
 22
0.500000
 32
0.000000
 13
0.500000
 23
0.500000
 33
0.000000
  0
ENDBLK
  8
0
  0
BLOCK
  8
0
  2
ROUNDP
 70
64
 10
0.000000
 20
0.000000
 30
0.000000
  3
ROUNDP
  0
CIRCLE
  8
0
 10
0.000000
 20
0.000000
 30
0.000000
 40
0.500000
  0
ENDBLK
  8
0
  0
BLOCK
  8
0
  2
ANNULUSP
 70
64
 10
0.000000
 20
0.000000
 30
0.000000
  3
ANNULUSP
  0
CIRCLE
  8
0
 10
0.000000
 20
0.000000
 30
0.000000
 40
0.500000
  0
ENDBLK
  8
0
  0
BLOCK
  8
0
  2
THERMALP
 70
64
 10
0.000000
 20
0.000000
 30
0.000000
  3
THERMALP
  0
LINE
  8
0
 10
-0.237868
 20
0.450000
 30
0.000000
 11
0.237868
 21
0.450000
 31
0.000000
  0
LINE
  8
0
 10
0.450000
 20
0.237868
 30
0.000000
 11
0.450000
 21
-0.237868
 31
0.000000
  0
LINE
  8
0
 10
0.237868
 20
-0.450000
 30
0.000000
 11
-0.237868
 21
-0.450000
 31
0.000000
  0
LINE
  8
0
 10
-0.450000
 20
-0.237868
 30
0.000000
 11
-0.450000
 21
0.237868
 31
0.000000
  0
ENDBLK
  8
0
  0
BLOCK
  8
0
  2
OCTAGONV
 70
64
 10
0.000000
 20
0.000000
 30
0.000000
  3
OCTAGONV
  0
POLYLINE
  8
0
 66
1
 10
0.000000
 20
0.000000
 30
0.000000
 40
0.000000
 41
0.000000
 70
1
  0
VERTEX
  8
0
 10
-0.500000
 20
-0.207107
 30
0.000000
  0
VERTEX
  8
0
 10
-0.500000
 20
0.207107
 30
0.000000
  0
VERTEX
  8
0
 10
-0.207107
 20
0.500000
 30
0.000000
  0
VERTEX
  8
0
 10
0.207107
 20
0.500000
 30
0.000000
  0
VERTEX
  8
0
 10
0.500000
 20
0.207107
 30
0.000000
  0
VERTEX
  8
0
 10
0.500000
 20
-0.207107
 30
0.000000
  0
VERTEX
  8
0
 10
0.207107
 20
-0.500000
 30
0.000000
  0
VERTEX
  8
0
 10
-0.207107
 20
-0.500000
 30
0.000000
  0
SEQEND
  8
0
  0
ENDBLK
  8
0
  0
BLOCK
  8
0
  2
SQUAREV
 70
64
 10
0.000000
 20
0.000000
 30
0.000000
  3
SQUAREV
  0
SOLID
  8
0
 10
-0.500000
 20
-0.500000
 30
0.000000
 11
0.500000
 21
-0.500000
 31
0.000000
 12
-0.500000
 22
0.500000
 32
0.000000
 13
0.500000
 23
0.500000
 33
0.000000
  0
ENDBLK
  8
0
  0
BLOCK
  8
0
  2
ROUNDV
 70
64
 10
0.000000
 20
0.000000
 30
0.000000
  3
ROUNDV
  0
CIRCLE
  8
0
 10
0.000000
 20
0.000000
 30
0.000000
 40
0.500000
  0
ENDBLK
  8
0
  0
BLOCK
  8
0
  2
ANNULUSV
 70
64
 10
0.000000
 20
0.000000
 30
0.000000
  3
ANNULUSV
  0
CIRCLE
  8
0
 10
0.000000
 20
0.000000
 30
0.000000
 40
0.500000
  0
ENDBLK
  8
0
  0
BLOCK
  8
0
  2
THERMALV
 70
64
 10
0.000000
 20
0.000000
 30
0.000000
  3
THERMALV
  0
LINE
  8
0
 10
-0.237868
 20
0.450000
 30
0.000000
 11
0.237868
 21
0.450000
 31
0.000000
  0
LINE
  8
0
 10
0.450000
 20
0.237868
 30
0.000000
 11
0.450000
 21
-0.237868
 31
0.000000
  0
LINE
  8
0
 10
0.237868
 20
-0.450000
 30
0.000000
 11
-0.237868
 21
-0.450000
 31
0.000000
  0
LINE
  8
0
 10
-0.450000
 20
-0.237868
 30
0.000000
 11
-0.450000
 21
0.237868
 31
0.000000
  0
ENDBLK
  8
0
  0
ENDSEC
  0
SECTION
  2
ENTITIES
  0
LINE
  8
20
 10
2.300000
 20
0.800000
 30
0.000000
 11
0.100000
 21
0.800000
 31
0.000000
  0
ARC
  8
20
 10
0.100000
 20
0.700000
 30
0.000000
 40
0.100000
 50
90.000000
 51
180.000000
  0
LINE
  8
20
 10
0.000000
 20
0.700000
 30
0.000000
 11
0.000000
 21
0.100000
 31
0.000000
  0
ARC
  8
20
 10
0.100000
 20
0.100000
 30
0.000000
 40
0.100000
 50
180.000000
 51
270.000000
  0
LINE
  8
20
 10
0.100000
 20
0.000000
 30
0.000000
 11
2.400000
 21
0.000000
 31
0.000000
  0
LINE
  8
20
 10
2.400000
 20
0.000000
 30
0.000000
 11
2.400000
 21
0.700000
 31
0.000000
  0
ARC
  8
20
 10
2.300000
 20
0.700000
 30
0.000000
 40
0.100000
 50
0.000000
 51
90.000000
  0
LINE
  8
21
 10
0.799223
 20
0.031500
 30
0.000000
 11
0.811567
 21
0.031500
 31
0.000000
  0
LINE
  8
21
 10
0.805395
 20
0.031500
 30
0.000000
 11
0.805395
 21
0.068532
 31
0.000000
  0
LINE
  8
21
 10
0.799223
 20
0.068532
 30
0.000000
 11
0.811567
 21
0.068532
 31
0.000000
  0
LINE
  8
21
 10
0.893084
 20
0.031500
 30
0.000000
 11
0.893084
 21
0.068532
 31
0.000000
  0
LINE
  8
21
 10
0.893084
 20
0.068532
 30
0.000000
 11
0.911600
 21
0.068532
 31
0.000000
  0
LINE
  8
21
 10
0.911600
 20
0.068532
 30
0.000000
 11
0.917772
 21
0.062360
 31
0.000000
  0
LINE
  8
21
 10
0.917772
 20
0.062360
 30
0.000000
 11
0.917772
 21
0.056188
 31
0.000000
  0
LINE
  8
21
 10
0.917772
 20
0.056188
 30
0.000000
 11
0.911600
 21
0.050016
 31
0.000000
  0
LINE
  8
21
 10
0.911600
 20
0.050016
 30
0.000000
 11
0.917772
 21
0.043844
 31
0.000000
  0
LINE
  8
21
 10
0.917772
 20
0.043844
 30
0.000000
 11
0.917772
 21
0.037672
 31
0.000000
  0
LINE
  8
21
 10
0.917772
 20
0.037672
 30
0.000000
 11
0.911600
 21
0.031500
 31
0.000000
  0
LINE
  8
21
 10
0.911600
 20
0.031500
 30
0.000000
 11
0.893084
 21
0.031500
 31
0.000000
  0
LINE
  8
21
 10
0.893084
 20
0.050016
 30
0.000000
 11
0.911600
 21
0.050016
 31
0.000000
  0
LINE
  8
21
 10
0.993084
 20
0.031500
 30
0.000000
 11
0.993084
 21
0.056188
 31
0.000000
  0
LINE
  8
21
 10
0.993084
 20
0.056188
 30
0.000000
 11
1.005428
 21
0.068532
 31
0.000000
  0
LINE
  8
21
 10
1.005428
 20
0.068532
 30
0.000000
 11
1.017772
 21
0.056188
 31
0.000000
  0
LINE
  8
21
 10
1.017772
 20
0.056188
 30
0.000000
 11
1.017772
 21
0.031500
 31
0.000000
  0
LINE
  8
21
 10
0.993084
 20
0.050016
 30
0.000000
 11
1.017772
 21
0.050016
 31
0.000000
  0
LINE
  8
21
 10
1.103084
 20
0.068532
 30
0.000000
 11
1.103084
 21
0.043844
 31
0.000000
  0
LINE
  8
21
 10
1.103084
 20
0.043844
 30
0.000000
 11
1.115428
 21
0.031500
 31
0.000000
  0
LINE
  8
21
 10
1.115428
 20
0.031500
 30
0.000000
 11
1.127772
 21
0.043844
 31
0.000000
  0
LINE
  8
21
 10
1.127772
 20
0.043844
 30
0.000000
 11
1.127772
 21
0.068532
 31
0.000000
  0
LINE
  8
21
 10
1.217772
 20
0.062360
 30
0.000000
 11
1.211600
 21
0.068532
 31
0.000000
  0
LINE
  8
21
 10
1.211600
 20
0.068532
 30
0.000000
 11
1.199256
 21
0.068532
 31
0.000000
  0
LINE
  8
21
 10
1.199256
 20
0.068532
 30
0.000000
 11
1.193084
 21
0.062360
 31
0.000000
  0
LINE
  8
21
 10
1.193084
 20
0.062360
 30
0.000000
 11
1.193084
 21
0.037672
 31
0.000000
  0
LINE
  8
21
 10
1.193084
 20
0.037672
 30
0.000000
 11
1.199256
 21
0.031500
 31
0.000000
  0
LINE
  8
21
 10
1.199256
 20
0.031500
 30
0.000000
 11
1.211600
 21
0.031500
 31
0.000000
  0
LINE
  8
21
 10
1.211600
 20
0.031500
 30
0.000000
 11
1.217772
 21
0.037672
 31
0.000000
  0
LINE
  8
21
 10
1.217772
 20
0.037672
 30
0.000000
 11
1.217772
 21
0.050016
 31
0.000000
  0
LINE
  8
21
 10
1.217772
 20
0.050016
 30
0.000000
 11
1.205428
 21
0.050016
 31
0.000000
  0
LINE
  8
21
 10
1.689223
 20
0.031500
 30
0.000000
 11
1.701567
 21
0.031500
 31
0.000000
  0
LINE
  8
21
 10
1.695395
 20
0.031500
 30
0.000000
 11
1.695395
 21
0.068532
 31
0.000000
  0
LINE
  8
21
 10
1.689223
 20
0.068532
 30
0.000000
 11
1.701567
 21
0.068532
 31
0.000000
  0
LINE
  8
21
 10
1.783084
 20
0.031500
 30
0.000000
 11
1.783084
 21
0.068532
 31
0.000000
  0
LINE
  8
21
 10
1.783084
 20
0.068532
 30
0.000000
 11
1.801600
 21
0.068532
 31
0.000000
  0
LINE
  8
21
 10
1.801600
 20
0.068532
 30
0.000000
 11
1.807772
 21
0.062360
 31
0.000000
  0
LINE
  8
21
 10
1.807772
 20
0.062360
 30
0.000000
 11
1.807772
 21
0.056188
 31
0.000000
  0
LINE
  8
21
 10
1.807772
 20
0.056188
 30
0.000000
 11
1.801600
 21
0.050016
 31
0.000000
  0
LINE
  8
21
 10
1.801600
 20
0.050016
 30
0.000000
 11
1.807772
 21
0.043844
 31
0.000000
  0
LINE
  8
21
 10
1.807772
 20
0.043844
 30
0.000000
 11
1.807772
 21
0.037672
 31
0.000000
  0
LINE
  8
21
 10
1.807772
 20
0.037672
 30
0.000000
 11
1.801600
 21
0.031500
 31
0.000000
  0
LINE
  8
21
 10
1.801600
 20
0.031500
 30
0.000000
 11
1.783084
 21
0.031500
 31
0.000000
  0
LINE
  8
21
 10
1.783084
 20
0.050016
 30
0.000000
 11
1.801600
 21
0.050016
 31
0.000000
  0
LINE
  8
21
 10
1.883084
 20
0.031500
 30
0.000000
 11
1.883084
 21
0.056188
 31
0.000000
  0
LINE
  8
21
 10
1.883084
 20
0.056188
 30
0.000000
 11
1.895428
 21
0.068532
 31
0.000000
  0
LINE
  8
21
 10
1.895428
 20
0.068532
 30
0.000000
 11
1.907772
 21
0.056188
 31
0.000000
  0
LINE
  8
21
 10
1.907772
 20
0.056188
 30
0.000000
 11
1.907772
 21
0.031500
 31
0.000000
  0
LINE
  8
21
 10
1.883084
 20
0.050016
 30
0.000000
 11
1.907772
 21
0.050016
 31
0.000000
  0
LINE
  8
21
 10
1.983084
 20
0.068532
 30
0.000000
 11
1.983084
 21
0.043844
 31
0.000000
  0
LINE
  8
21
 10
1.983084
 20
0.043844
 30
0.000000
 11
1.995428
 21
0.031500
 31
0.000000
  0
LINE
  8
21
 10
1.995428
 20
0.031500
 30
0.000000
 11
2.007772
 21
0.043844
 31
0.000000
  0
LINE
  8
21
 10
2.007772
 20
0.043844
 30
0.000000
 11
2.007772
 21
0.068532
 31
0.000000
  0
LINE
  8
21
 10
2.107772
 20
0.062360
 30
0.000000
 11
2.101600
 21
0.068532
 31
0.000000
  0
LINE
  8
21
 10
2.101600
 20
0.068532
 30
0.000000
 11
2.089256
 21
0.068532
 31
0.000000
  0
LINE
  8
21
 10
2.089256
 20
0.068532
 30
0.000000
 11
2.083084
 21
0.062360
 31
0.000000
  0
LINE
  8
21
 10
2.083084
 20
0.062360
 30
0.000000
 11
2.083084
 21
0.037672
 31
0.000000
  0
LINE
  8
21
 10
2.083084
 20
0.037672
 30
0.000000
 11
2.089256
 21
0.031500
 31
0.000000
  0
LINE
  8
21
 10
2.089256
 20
0.031500
 30
0.000000
 11
2.101600
 21
0.031500
 31
0.000000
  0
LINE
  8
21
 10
2.101600
 20
0.031500
 30
0.000000
 11
2.107772
 21
0.037672
 31
0.000000
  0
LINE
  8
21
 10
2.107772
 20
0.037672
 30
0.000000
 11
2.107772
 21
0.050016
 31
0.000000
  0
LINE
  8
21
 10
2.107772
 20
0.050016
 30
0.000000
 11
2.095428
 21
0.050016
 31
0.000000
  0
LINE
  8
21
 10
0.499357
 20
0.713696
 30
0.000000
 11
0.492517
 21
0.720535
 31
0.000000
  0
LINE
  8
21
 10
0.492517
 20
0.720535
 30
0.000000
 11
0.478839
 21
0.720535
 31
0.000000
  0
LINE
  8
21
 10
0.478839
 20
0.720535
 30
0.000000
 11
0.472000
 21
0.713696
 31
0.000000
  0
LINE
  8
21
 10
0.472000
 20
0.713696
 30
0.000000
 11
0.472000
 21
0.706857
 31
0.000000
  0
LINE
  8
21
 10
0.472000
 20
0.706857
 30
0.000000
 11
0.478839
 21
0.700017
 31
0.000000
  0
LINE
  8
21
 10
0.478839
 20
0.700017
 30
0.000000
 11
0.492517
 21
0.700017
 31
0.000000
  0
LINE
  8
21
 10
0.492517
 20
0.700017
 30
0.000000
 11
0.499357
 21
0.693178
 31
0.000000
  0
LINE
  8
21
 10
0.499357
 20
0.693178
 30
0.000000
 11
0.499357
 21
0.686339
 31
0.000000
  0
LINE
  8
21
 10
0.499357
 20
0.686339
 30
0.000000
 11
0.492517
 21
0.679500
 31
0.000000
  0
LINE
  8
21
 10
0.492517
 20
0.679500
 30
0.000000
 11
0.478839
 21
0.679500
 31
0.000000
  0
LINE
  8
21
 10
0.478839
 20
0.679500
 30
0.000000
 11
0.472000
 21
0.686339
 31
0.000000
  0
LINE
  8
21
 10
0.513435
 20
0.706857
 30
0.000000
 11
0.527114
 21
0.720535
 31
0.000000
  0
LINE
  8
21
 10
0.527114
 20
0.720535
 30
0.000000
 11
0.527114
 21
0.679500
 31
0.000000
  0
LINE
  8
21
 10
0.513435
 20
0.679500
 30
0.000000
 11
0.540792
 21
0.679500
 31
0.000000
  0
LINE
  8
21
 10
0.499357
 20
0.633696
 30
0.000000
 11
0.492517
 21
0.640535
 31
0.000000
  0
LINE
  8
21
 10
0.492517
 20
0.640535
 30
0.000000
 11
0.478839
 21
0.640535
 31
0.000000
  0
LINE
  8
21
 10
0.478839
 20
0.640535
 30
0.000000
 11
0.472000
 21
0.633696
 31
0.000000
  0
LINE
  8
21
 10
0.472000
 20
0.633696
 30
0.000000
 11
0.472000
 21
0.626857
 31
0.000000
  0
LINE
  8
21
 10
0.472000
 20
0.626857
 30
0.000000
 11
0.478839
 21
0.620017
 31
0.000000
  0
LINE
  8
21
 10
0.478839
 20
0.620017
 30
0.000000
 11
0.492517
 21
0.620017
 31
0.000000
  0
LINE
  8
21
 10
0.492517
 20
0.620017
 30
0.000000
 11
0.499357
 21
0.613178
 31
0.000000
  0
LINE
  8
21
 10
0.499357
 20
0.613178
 30
0.000000
 11
0.499357
 21
0.606339
 31
0.000000
  0
LINE
  8
21
 10
0.499357
 20
0.606339
 30
0.000000
 11
0.492517
 21
0.599500
 31
0.000000
  0
LINE
  8
21
 10
0.492517
 20
0.599500
 30
0.000000
 11
0.478839
 21
0.599500
 31
0.000000
  0
LINE
  8
21
 10
0.478839
 20
0.599500
 30
0.000000
 11
0.472000
 21
0.606339
 31
0.000000
  0
LINE
  8
21
 10
0.540792
 20
0.599500
 30
0.000000
 11
0.513435
 21
0.599500
 31
0.000000
  0
LINE
  8
21
 10
0.513435
 20
0.599500
 30
0.000000
 11
0.540792
 21
0.626857
 31
0.000000
  0
LINE
  8
21
 10
0.540792
 20
0.626857
 30
0.000000
 11
0.540792
 21
0.633696
 31
0.000000
  0
LINE
  8
21
 10
0.540792
 20
0.633696
 30
0.000000
 11
0.533953
 21
0.640535
 31
0.000000
  0
LINE
  8
21
 10
0.533953
 20
0.640535
 30
0.000000
 11
0.520274
 21
0.640535
 31
0.000000
  0
LINE
  8
21
 10
0.520274
 20
0.640535
 30
0.000000
 11
0.513435
 21
0.633696
 31
0.000000
  0
LINE
  8
21
 10
0.060070
 20
0.479500
 30
0.000000
 11
0.060070
 21
0.520535
 31
0.000000
  0
LINE
  8
21
 10
0.060070
 20
0.520535
 30
0.000000
 11
0.073749
 21
0.506857
 31
0.000000
  0
LINE
  8
21
 10
0.073749
 20
0.506857
 30
0.000000
 11
0.087427
 21
0.520535
 31
0.000000
  0
LINE
  8
21
 10
0.087427
 20
0.520535
 30
0.000000
 11
0.087427
 21
0.479500
 31
0.000000
  0
LINE
  8
21
 10
0.122023
 20
0.520535
 30
0.000000
 11
0.108345
 21
0.520535
 31
0.000000
  0
LINE
  8
21
 10
0.108345
 20
0.520535
 30
0.000000
 11
0.101506
 21
0.513696
 31
0.000000
  0
LINE
  8
21
 10
0.101506
 20
0.513696
 30
0.000000
 11
0.101506
 21
0.486339
 31
0.000000
  0
LINE
  8
21
 10
0.101506
 20
0.486339
 30
0.000000
 11
0.108345
 21
0.479500
 31
0.000000
  0
LINE
  8
21
 10
0.108345
 20
0.479500
 30
0.000000
 11
0.122023
 21
0.479500
 31
0.000000
  0
LINE
  8
21
 10
0.122023
 20
0.479500
 30
0.000000
 11
0.128862
 21
0.486339
 31
0.000000
  0
LINE
  8
21
 10
0.128862
 20
0.486339
 30
0.000000
 11
0.128862
 21
0.513696
 31
0.000000
  0
LINE
  8
21
 10
0.128862
 20
0.513696
 30
0.000000
 11
0.122023
 21
0.520535
 31
0.000000
  0
LINE
  8
21
 10
0.170298
 20
0.513696
 30
0.000000
 11
0.163459
 21
0.520535
 31
0.000000
  0
LINE
  8
21
 10
0.163459
 20
0.520535
 30
0.000000
 11
0.149780
 21
0.520535
 31
0.000000
  0
LINE
  8
21
 10
0.149780
 20
0.520535
 30
0.000000
 11
0.142941
 21
0.513696
 31
0.000000
  0
LINE
  8
21
 10
0.142941
 20
0.513696
 30
0.000000
 11
0.142941
 21
0.506857
 31
0.000000
  0
LINE
  8
21
 10
0.142941
 20
0.506857
 30
0.000000
 11
0.149780
 21
0.500017
 31
0.000000
  0
LINE
  8
21
 10
0.149780
 20
0.500017
 30
0.000000
 11
0.163459
 21
0.500017
 31
0.000000
  0
LINE
  8
21
 10
0.163459
 20
0.500017
 30
0.000000
 11
0.170298
 21
0.493178
 31
0.000000
  0
LINE
  8
21
 10
0.170298
 20
0.493178
 30
0.000000
 11
0.170298
 21
0.486339
 31
0.000000
  0
LINE
  8
21
 10
0.170298
 20
0.486339
 30
0.000000
 11
0.163459
 21
0.479500
 31
0.000000
  0
LINE
  8
21
 10
0.163459
 20
0.479500
 30
0.000000
 11
0.149780
 21
0.479500
 31
0.000000
  0
LINE
  8
21
 10
0.149780
 20
0.479500
 30
0.000000
 11
0.142941
 21
0.486339
 31
0.000000
  0
LINE
  8
21
 10
0.184376
 20
0.479500
 30
0.000000
 11
0.198055
 21
0.479500
 31
0.000000
  0
LINE
  8
21
 10
0.191216
 20
0.479500
 30
0.000000
 11
0.191216
 21
0.520535
 31
0.000000
  0
LINE
  8
21
 10
0.184376
 20
0.520535
 30
0.000000
 11
0.198055
 21
0.520535
 31
0.000000
  0
LINE
  8
21
 10
0.060070
 20
0.379500
 30
0.000000
 11
0.060070
 21
0.420535
 31
0.000000
  0
LINE
  8
21
 10
0.060070
 20
0.420535
 30
0.000000
 11
0.073749
 21
0.406857
 31
0.000000
  0
LINE
  8
21
 10
0.073749
 20
0.406857
 30
0.000000
 11
0.087427
 21
0.420535
 31
0.000000
  0
LINE
  8
21
 10
0.087427
 20
0.420535
 30
0.000000
 11
0.087427
 21
0.379500
 31
0.000000
  0
LINE
  8
21
 10
0.101506
 20
0.379500
 30
0.000000
 11
0.115184
 21
0.379500
 31
0.000000
  0
LINE
  8
21
 10
0.108345
 20
0.379500
 30
0.000000
 11
0.108345
 21
0.420535
 31
0.000000
  0
LINE
  8
21
 10
0.101506
 20
0.420535
 30
0.000000
 11
0.115184
 21
0.420535
 31
0.000000
  0
LINE
  8
21
 10
0.156486
 20
0.413696
 30
0.000000
 11
0.149647
 21
0.420535
 31
0.000000
  0
LINE
  8
21
 10
0.149647
 20
0.420535
 30
0.000000
 11
0.135968
 21
0.420535
 31
0.000000
  0
LINE
  8
21
 10
0.135968
 20
0.420535
 30
0.000000
 11
0.129129
 21
0.413696
 31
0.000000
  0
LINE
  8
21
 10
0.129129
 20
0.413696
 30
0.000000
 11
0.129129
 21
0.406857
 31
0.000000
  0
LINE
  8
21
 10
0.129129
 20
0.406857
 30
0.000000
 11
0.135968
 21
0.400017
 31
0.000000
  0
LINE
  8
21
 10
0.135968
 20
0.400017
 30
0.000000
 11
0.149647
 21
0.400017
 31
0.000000
  0
LINE
  8
21
 10
0.149647
 20
0.400017
 30
0.000000
 11
0.156486
 21
0.393178
 31
0.000000
  0
LINE
  8
21
 10
0.156486
 20
0.393178
 30
0.000000
 11
0.156486
 21
0.386339
 31
0.000000
  0
LINE
  8
21
 10
0.156486
 20
0.386339
 30
0.000000
 11
0.149647
 21
0.379500
 31
0.000000
  0
LINE
  8
21
 10
0.149647
 20
0.379500
 30
0.000000
 11
0.135968
 21
0.379500
 31
0.000000
  0
LINE
  8
21
 10
0.135968
 20
0.379500
 30
0.000000
 11
0.129129
 21
0.386339
 31
0.000000
  0
LINE
  8
21
 10
0.191082
 20
0.420535
 30
0.000000
 11
0.177404
 21
0.420535
 31
0.000000
  0
LINE
  8
21
 10
0.177404
 20
0.420535
 30
0.000000
 11
0.170565
 21
0.413696
 31
0.000000
  0
LINE
  8
21
 10
0.170565
 20
0.413696
 30
0.000000
 11
0.170565
 21
0.386339
 31
0.000000
  0
LINE
  8
21
 10
0.170565
 20
0.386339
 30
0.000000
 11
0.177404
 21
0.379500
 31
0.000000
  0
LINE
  8
21
 10
0.177404
 20
0.379500
 30
0.000000
 11
0.191082
 21
0.379500
 31
0.000000
  0
LINE
  8
21
 10
0.191082
 20
0.379500
 30
0.000000
 11
0.197921
 21
0.386339
 31
0.000000
  0
LINE
  8
21
 10
0.197921
 20
0.386339
 30
0.000000
 11
0.197921
 21
0.413696
 31
0.000000
  0
LINE
  8
21
 10
0.197921
 20
0.413696
 30
0.000000
 11
0.191082
 21
0.420535
 31
0.000000
  0
LINE
  8
21
 10
0.073615
 20
0.313696
 30
0.000000
 11
0.066776
 21
0.320535
 31
0.000000
  0
LINE
  8
21
 10
0.066776
 20
0.320535
 30
0.000000
 11
0.053097
 21
0.320535
 31
0.000000
  0
LINE
  8
21
 10
0.053097
 20
0.320535
 30
0.000000
 11
0.046258
 21
0.313696
 31
0.000000
  0
LINE
  8
21
 10
0.046258
 20
0.313696
 30
0.000000
 11
0.046258
 21
0.306857
 31
0.000000
  0
LINE
  8
21
 10
0.046258
 20
0.306857
 30
0.000000
 11
0.053097
 21
0.300017
 31
0.000000
  0
LINE
  8
21
 10
0.053097
 20
0.300017
 30
0.000000
 11
0.066776
 21
0.300017
 31
0.000000
  0
LINE
  8
21
 10
0.066776
 20
0.300017
 30
0.000000
 11
0.073615
 21
0.293178
 31
0.000000
  0
LINE
  8
21
 10
0.073615
 20
0.293178
 30
0.000000
 11
0.073615
 21
0.286339
 31
0.000000
  0
LINE
  8
21
 10
0.073615
 20
0.286339
 30
0.000000
 11
0.066776
 21
0.279500
 31
0.000000
  0
LINE
  8
21
 10
0.066776
 20
0.279500
 30
0.000000
 11
0.053097
 21
0.279500
 31
0.000000
  0
LINE
  8
21
 10
0.053097
 20
0.279500
 30
0.000000
 11
0.046258
 21
0.286339
 31
0.000000
  0
LINE
  8
21
 10
0.115050
 20
0.313696
 30
0.000000
 11
0.108211
 21
0.320535
 31
0.000000
  0
LINE
  8
21
 10
0.108211
 20
0.320535
 30
0.000000
 11
0.094533
 21
0.320535
 31
0.000000
  0
LINE
  8
21
 10
0.094533
 20
0.320535
 30
0.000000
 11
0.087694
 21
0.313696
 31
0.000000
  0
LINE
  8
21
 10
0.087694
 20
0.313696
 30
0.000000
 11
0.087694
 21
0.286339
 31
0.000000
  0
LINE
  8
21
 10
0.087694
 20
0.286339
 30
0.000000
 11
0.094533
 21
0.279500
 31
0.000000
  0
LINE
  8
21
 10
0.094533
 20
0.279500
 30
0.000000
 11
0.108211
 21
0.279500
 31
0.000000
  0
LINE
  8
21
 10
0.108211
 20
0.279500
 30
0.000000
 11
0.115050
 21
0.286339
 31
0.000000
  0
LINE
  8
21
 10
0.129129
 20
0.320535
 30
0.000000
 11
0.129129
 21
0.279500
 31
0.000000
  0
LINE
  8
21
 10
0.129129
 20
0.279500
 30
0.000000
 11
0.156486
 21
0.279500
 31
0.000000
  0
LINE
  8
21
 10
0.170565
 20
0.320535
 30
0.000000
 11
0.170565
 21
0.279500
 31
0.000000
  0
LINE
  8
21
 10
0.170565
 20
0.293178
 30
0.000000
 11
0.197921
 21
0.320535
 31
0.000000
  0
LINE
  8
21
 10
0.177404
 20
0.300017
 30
0.000000
 11
0.197921
 21
0.279500
 31
0.000000
  0
LINE
  8
21
 10
0.115050
 20
0.203696
 30
0.000000
 11
0.108211
 21
0.210535
 31
0.000000
  0
LINE
  8
21
 10
0.108211
 20
0.210535
 30
0.000000
 11
0.094533
 21
0.210535
 31
0.000000
  0
LINE
  8
21
 10
0.094533
 20
0.210535
 30
0.000000
 11
0.087694
 21
0.203696
 31
0.000000
  0
LINE
  8
21
 10
0.087694
 20
0.203696
 30
0.000000
 11
0.087694
 21
0.176339
 31
0.000000
  0
LINE
  8
21
 10
0.087694
 20
0.176339
 30
0.000000
 11
0.094533
 21
0.169500
 31
0.000000
  0
LINE
  8
21
 10
0.094533
 20
0.169500
 30
0.000000
 11
0.108211
 21
0.169500
 31
0.000000
  0
LINE
  8
21
 10
0.108211
 20
0.169500
 30
0.000000
 11
0.115050
 21
0.176339
 31
0.000000
  0
LINE
  8
21
 10
0.115050
 20
0.176339
 30
0.000000
 11
0.115050
 21
0.190017
 31
0.000000
  0
LINE
  8
21
 10
0.115050
 20
0.190017
 30
0.000000
 11
0.101372
 21
0.190017
 31
0.000000
  0
LINE
  8
21
 10
0.129129
 20
0.169500
 30
0.000000
 11
0.129129
 21
0.210535
 31
0.000000
  0
LINE
  8
21
 10
0.129129
 20
0.210535
 30
0.000000
 11
0.156486
 21
0.169500
 31
0.000000
  0
LINE
  8
21
 10
0.156486
 20
0.169500
 30
0.000000
 11
0.156486
 21
0.210535
 31
0.000000
  0
LINE
  8
21
 10
0.170565
 20
0.210535
 30
0.000000
 11
0.170565
 21
0.169500
 31
0.000000
  0
LINE
  8
21
 10
0.170565
 20
0.169500
 30
0.000000
 11
0.191082
 21
0.169500
 31
0.000000
  0
LINE
  8
21
 10
0.191082
 20
0.169500
 30
0.000000
 11
0.197921
 21
0.176339
 31
0.000000
  0
LINE
  8
21
 10
0.197921
 20
0.176339
 30
0.000000
 11
0.197921
 21
0.203696
 31
0.000000
  0
LINE
  8
21
 10
0.197921
 20
0.203696
 30
0.000000
 11
0.191082
 21
0.210535
 31
0.000000
  0
LINE
  8
21
 10
0.191082
 20
0.210535
 30
0.000000
 11
0.170565
 21
0.210535
 31
0.000000
  0
LINE
  8
21
 10
0.156486
 20
0.110535
 30
0.000000
 11
0.129129
 21
0.110535
 31
0.000000
  0
LINE
  8
21
 10
0.129129
 20
0.110535
 30
0.000000
 11
0.129129
 21
0.090017
 31
0.000000
  0
LINE
  8
21
 10
0.129129
 20
0.090017
 30
0.000000
 11
0.142807
 21
0.096857
 31
0.000000
  0
LINE
  8
21
 10
0.142807
 20
0.096857
 30
0.000000
 11
0.149647
 21
0.096857
 31
0.000000
  0
LINE
  8
21
 10
0.149647
 20
0.096857
 30
0.000000
 11
0.156486
 21
0.090017
 31
0.000000
  0
LINE
  8
21
 10
0.156486
 20
0.090017
 30
0.000000
 11
0.156486
 21
0.076339
 31
0.000000
  0
LINE
  8
21
 10
0.156486
 20
0.076339
 30
0.000000
 11
0.149647
 21
0.069500
 31
0.000000
  0
LINE
  8
21
 10
0.149647
 20
0.069500
 30
0.000000
 11
0.135968
 21
0.069500
 31
0.000000
  0
LINE
  8
21
 10
0.135968
 20
0.069500
 30
0.000000
 11
0.129129
 21
0.076339
 31
0.000000
  0
LINE
  8
21
 10
0.170565
 20
0.110535
 30
0.000000
 11
0.170565
 21
0.083178
 31
0.000000
  0
LINE
  8
21
 10
0.170565
 20
0.083178
 30
0.000000
 11
0.184243
 21
0.069500
 31
0.000000
  0
LINE
  8
21
 10
0.184243
 20
0.069500
 30
0.000000
 11
0.197921
 21
0.083178
 31
0.000000
  0
LINE
  8
21
 10
0.197921
 20
0.083178
 30
0.000000
 11
0.197921
 21
0.110535
 31
0.000000
  0
LINE
  8
21
 10
0.461500
 20
0.780525
 30
0.000000
 11
0.461500
 21
0.751500
 31
0.000000
  0
LINE
  8
21
 10
0.461500
 20
0.751500
 30
0.000000
 11
0.476012
 21
0.751500
 31
0.000000
  0
LINE
  8
21
 10
0.476012
 20
0.751500
 30
0.000000
 11
0.480850
 21
0.756337
 31
0.000000
  0
LINE
  8
21
 10
0.480850
 20
0.756337
 30
0.000000
 11
0.480850
 21
0.775687
 31
0.000000
  0
LINE
  8
21
 10
0.480850
 20
0.775687
 30
0.000000
 11
0.476012
 21
0.780525
 31
0.000000
  0
LINE
  8
21
 10
0.476012
 20
0.780525
 30
0.000000
 11
0.461500
 21
0.780525
 31
0.000000
  0
LINE
  8
21
 10
0.490965
 20
0.770850
 30
0.000000
 11
0.490965
 21
0.756337
 31
0.000000
  0
LINE
  8
21
 10
0.490965
 20
0.756337
 30
0.000000
 11
0.495803
 21
0.751500
 31
0.000000
  0
LINE
  8
21
 10
0.495803
 20
0.751500
 30
0.000000
 11
0.510315
 21
0.751500
 31
0.000000
  0
LINE
  8
21
 10
0.510315
 20
0.751500
 30
0.000000
 11
0.510315
 21
0.770850
 31
0.000000
  0
LINE
  8
21
 10
0.525268
 20
0.770850
 30
0.000000
 11
0.534943
 21
0.770850
 31
0.000000
  0
LINE
  8
21
 10
0.534943
 20
0.770850
 30
0.000000
 11
0.539780
 21
0.766012
 31
0.000000
  0
LINE
  8
21
 10
0.539780
 20
0.766012
 30
0.000000
 11
0.539780
 21
0.751500
 31
0.000000
  0
LINE
  8
21
 10
0.539780
 20
0.751500
 30
0.000000
 11
0.525268
 21
0.751500
 31
0.000000
  0
LINE
  8
21
 10
0.525268
 20
0.751500
 30
0.000000
 11
0.520430
 21
0.756337
 31
0.000000
  0
LINE
  8
21
 10
0.520430
 20
0.756337
 30
0.000000
 11
0.525268
 21
0.761175
 31
0.000000
  0
LINE
  8
21
 10
0.525268
 20
0.761175
 30
0.000000
 11
0.539780
 21
0.761175
 31
0.000000
  0
LINE
  8
21
 10
0.549896
 20
0.780525
 30
0.000000
 11
0.554733
 21
0.780525
 31
0.000000
  0
LINE
  8
21
 10
0.554733
 20
0.780525
 30
0.000000
 11
0.554733
 21
0.751500
 31
0.000000
  0
LINE
  8
21
 10
0.549896
 20
0.751500
 30
0.000000
 11
0.559570
 21
0.751500
 31
0.000000
  0
LINE
  8
21
 10
0.618354
 20
0.780525
 30
0.000000
 11
0.599004
 21
0.780525
 31
0.000000
  0
LINE
  8
21
 10
0.599004
 20
0.780525
 30
0.000000
 11
0.599004
 21
0.751500
 31
0.000000
  0
LINE
  8
21
 10
0.599004
 20
0.751500
 30
0.000000
 11
0.618354
 21
0.751500
 31
0.000000
  0
LINE
  8
21
 10
0.599004
 20
0.766012
 30
0.000000
 11
0.608679
 21
0.766012
 31
0.000000
  0
LINE
  8
21
 10
0.628469
 20
0.751500
 30
0.000000
 11
0.628469
 21
0.770850
 31
0.000000
  0
LINE
  8
21
 10
0.628469
 20
0.770850
 30
0.000000
 11
0.642982
 21
0.770850
 31
0.000000
  0
LINE
  8
21
 10
0.642982
 20
0.770850
 30
0.000000
 11
0.647819
 21
0.766012
 31
0.000000
  0
LINE
  8
21
 10
0.647819
 20
0.766012
 30
0.000000
 11
0.647819
 21
0.751500
 31
0.000000
  0
LINE
  8
21
 10
0.677284
 20
0.770850
 30
0.000000
 11
0.662772
 21
0.770850
 31
0.000000
  0
LINE
  8
21
 10
0.662772
 20
0.770850
 30
0.000000
 11
0.657935
 21
0.766012
 31
0.000000
  0
LINE
  8
21
 10
0.657935
 20
0.766012
 30
0.000000
 11
0.657935
 21
0.756337
 31
0.000000
  0
LINE
  8
21
 10
0.657935
 20
0.756337
 30
0.000000
 11
0.662772
 21
0.751500
 31
0.000000
  0
LINE
  8
21
 10
0.662772
 20
0.751500
 30
0.000000
 11
0.677284
 21
0.751500
 31
0.000000
  0
LINE
  8
21
 10
0.692237
 20
0.751500
 30
0.000000
 11
0.701912
 21
0.751500
 31
0.000000
  0
LINE
  8
21
 10
0.701912
 20
0.751500
 30
0.000000
 11
0.706750
 21
0.756337
 31
0.000000
  0
LINE
  8
21
 10
0.706750
 20
0.756337
 30
0.000000
 11
0.706750
 21
0.766012
 31
0.000000
  0
LINE
  8
21
 10
0.706750
 20
0.766012
 30
0.000000
 11
0.701912
 21
0.770850
 31
0.000000
  0
LINE
  8
21
 10
0.701912
 20
0.770850
 30
0.000000
 11
0.692237
 21
0.770850
 31
0.000000
  0
LINE
  8
21
 10
0.692237
 20
0.770850
 30
0.000000
 11
0.687400
 21
0.766012
 31
0.000000
  0
LINE
  8
21
 10
0.687400
 20
0.766012
 30
0.000000
 11
0.687400
 21
0.756337
 31
0.000000
  0
LINE
  8
21
 10
0.687400
 20
0.756337
 30
0.000000
 11
0.692237
 21
0.751500
 31
0.000000
  0
LINE
  8
21
 10
0.736215
 20
0.780525
 30
0.000000
 11
0.736215
 21
0.751500
 31
0.000000
  0
LINE
  8
21
 10
0.736215
 20
0.751500
 30
0.000000
 11
0.721702
 21
0.751500
 31
0.000000
  0
LINE
  8
21
 10
0.721702
 20
0.751500
 30
0.000000
 11
0.716865
 21
0.756337
 31
0.000000
  0
LINE
  8
21
 10
0.716865
 20
0.756337
 30
0.000000
 11
0.716865
 21
0.766012
 31
0.000000
  0
LINE
  8
21
 10
0.716865
 20
0.766012
 30
0.000000
 11
0.721702
 21
0.770850
 31
0.000000
  0
LINE
  8
21
 10
0.721702
 20
0.770850
 30
0.000000
 11
0.736215
 21
0.770850
 31
0.000000
  0
LINE
  8
21
 10
0.760842
 20
0.751500
 30
0.000000
 11
0.751167
 21
0.751500
 31
0.000000
  0
LINE
  8
21
 10
0.751167
 20
0.751500
 30
0.000000
 11
0.746330
 21
0.756337
 31
0.000000
  0
LINE
  8
21
 10
0.746330
 20
0.756337
 30
0.000000
 11
0.746330
 21
0.766012
 31
0.000000
  0
LINE
  8
21
 10
0.746330
 20
0.766012
 30
0.000000
 11
0.751167
 21
0.770850
 31
0.000000
  0
LINE
  8
21
 10
0.751167
 20
0.770850
 30
0.000000
 11
0.760842
 21
0.770850
 31
0.000000
  0
LINE
  8
21
 10
0.760842
 20
0.770850
 30
0.000000
 11
0.765680
 21
0.766012
 31
0.000000
  0
LINE
  8
21
 10
0.765680
 20
0.766012
 30
0.000000
 11
0.765680
 21
0.761175
 31
0.000000
  0
LINE
  8
21
 10
0.765680
 20
0.761175
 30
0.000000
 11
0.746330
 21
0.761175
 31
0.000000
  0
LINE
  8
21
 10
0.775795
 20
0.751500
 30
0.000000
 11
0.775795
 21
0.770850
 31
0.000000
  0
LINE
  8
21
 10
0.775795
 20
0.761175
 30
0.000000
 11
0.785470
 21
0.770850
 31
0.000000
  0
LINE
  8
21
 10
0.785470
 20
0.770850
 30
0.000000
 11
0.790308
 21
0.770850
 31
0.000000
  0
LINE
  8
21
 10
0.829815
 20
0.751500
 30
0.000000
 11
0.829815
 21
0.780525
 31
0.000000
  0
LINE
  8
21
 10
0.829815
 20
0.780525
 30
0.000000
 11
0.844327
 21
0.780525
 31
0.000000
  0
LINE
  8
21
 10
0.844327
 20
0.780525
 30
0.000000
 11
0.849164
 21
0.775687
 31
0.000000
  0
LINE
  8
21
 10
0.849164
 20
0.775687
 30
0.000000
 11
0.849164
 21
0.770850
 31
0.000000
  0
LINE
  8
21
 10
0.849164
 20
0.770850
 30
0.000000
 11
0.844327
 21
0.766012
 31
0.000000
  0
LINE
  8
21
 10
0.844327
 20
0.766012
 30
0.000000
 11
0.849164
 21
0.761175
 31
0.000000
  0
LINE
  8
21
 10
0.849164
 20
0.761175
 30
0.000000
 11
0.849164
 21
0.756337
 31
0.000000
  0
LINE
  8
21
 10
0.849164
 20
0.756337
 30
0.000000
 11
0.844327
 21
0.751500
 31
0.000000
  0
LINE
  8
21
 10
0.844327
 20
0.751500
 30
0.000000
 11
0.829815
 21
0.751500
 31
0.000000
  0
LINE
  8
21
 10
0.829815
 20
0.766012
 30
0.000000
 11
0.844327
 21
0.766012
 31
0.000000
  0
LINE
  8
21
 10
0.859280
 20
0.751500
 30
0.000000
 11
0.859280
 21
0.770850
 31
0.000000
  0
LINE
  8
21
 10
0.859280
 20
0.761175
 30
0.000000
 11
0.868955
 21
0.770850
 31
0.000000
  0
LINE
  8
21
 10
0.868955
 20
0.770850
 30
0.000000
 11
0.873792
 21
0.770850
 31
0.000000
  0
LINE
  8
21
 10
0.898346
 20
0.751500
 30
0.000000
 11
0.888672
 21
0.751500
 31
0.000000
  0
LINE
  8
21
 10
0.888672
 20
0.751500
 30
0.000000
 11
0.883834
 21
0.756337
 31
0.000000
  0
LINE
  8
21
 10
0.883834
 20
0.756337
 30
0.000000
 11
0.883834
 21
0.766012
 31
0.000000
  0
LINE
  8
21
 10
0.883834
 20
0.766012
 30
0.000000
 11
0.888672
 21
0.770850
 31
0.000000
  0
LINE
  8
21
 10
0.888672
 20
0.770850
 30
0.000000
 11
0.898346
 21
0.770850
 31
0.000000
  0
LINE
  8
21
 10
0.898346
 20
0.770850
 30
0.000000
 11
0.903184
 21
0.766012
 31
0.000000
  0
LINE
  8
21
 10
0.903184
 20
0.766012
 30
0.000000
 11
0.903184
 21
0.761175
 31
0.000000
  0
LINE
  8
21
 10
0.903184
 20
0.761175
 30
0.000000
 11
0.883834
 21
0.761175
 31
0.000000
  0
LINE
  8
21
 10
0.918137
 20
0.770850
 30
0.000000
 11
0.927812
 21
0.770850
 31
0.000000
  0
LINE
  8
21
 10
0.927812
 20
0.770850
 30
0.000000
 11
0.932649
 21
0.766012
 31
0.000000
  0
LINE
  8
21
 10
0.932649
 20
0.766012
 30
0.000000
 11
0.932649
 21
0.751500
 31
0.000000
  0
LINE
  8
21
 10
0.932649
 20
0.751500
 30
0.000000
 11
0.918137
 21
0.751500
 31
0.000000
  0
LINE
  8
21
 10
0.918137
 20
0.751500
 30
0.000000
 11
0.913299
 21
0.756337
 31
0.000000
  0
LINE
  8
21
 10
0.913299
 20
0.756337
 30
0.000000
 11
0.918137
 21
0.761175
 31
0.000000
  0
LINE
  8
21
 10
0.918137
 20
0.761175
 30
0.000000
 11
0.932649
 21
0.761175
 31
0.000000
  0
LINE
  8
21
 10
0.942765
 20
0.751500
 30
0.000000
 11
0.942765
 21
0.780525
 31
0.000000
  0
LINE
  8
21
 10
0.957277
 20
0.751500
 30
0.000000
 11
0.942765
 21
0.761175
 31
0.000000
  0
LINE
  8
21
 10
0.942765
 20
0.761175
 30
0.000000
 11
0.957277
 21
0.770850
 31
0.000000
  0
LINE
  8
21
 10
0.972156
 20
0.751500
 30
0.000000
 11
0.981831
 21
0.751500
 31
0.000000
  0
LINE
  8
21
 10
0.981831
 20
0.751500
 30
0.000000
 11
0.986669
 21
0.756337
 31
0.000000
  0
LINE
  8
21
 10
0.986669
 20
0.756337
 30
0.000000
 11
0.986669
 21
0.766012
 31
0.000000
  0
LINE
  8
21
 10
0.986669
 20
0.766012
 30
0.000000
 11
0.981831
 21
0.770850
 31
0.000000
  0
LINE
  8
21
 10
0.981831
 20
0.770850
 30
0.000000
 11
0.972156
 21
0.770850
 31
0.000000
  0
LINE
  8
21
 10
0.972156
 20
0.770850
 30
0.000000
 11
0.967319
 21
0.766012
 31
0.000000
  0
LINE
  8
21
 10
0.967319
 20
0.766012
 30
0.000000
 11
0.967319
 21
0.756337
 31
0.000000
  0
LINE
  8
21
 10
0.967319
 20
0.756337
 30
0.000000
 11
0.972156
 21
0.751500
 31
0.000000
  0
LINE
  8
21
 10
0.996784
 20
0.770850
 30
0.000000
 11
0.996784
 21
0.756337
 31
0.000000
  0
LINE
  8
21
 10
0.996784
 20
0.756337
 30
0.000000
 11
1.001621
 21
0.751500
 31
0.000000
  0
LINE
  8
21
 10
1.001621
 20
0.751500
 30
0.000000
 11
1.016134
 21
0.751500
 31
0.000000
  0
LINE
  8
21
 10
1.016134
 20
0.751500
 30
0.000000
 11
1.016134
 21
0.770850
 31
0.000000
  0
LINE
  8
21
 10
1.031086
 20
0.775687
 30
0.000000
 11
1.031086
 21
0.756337
 31
0.000000
  0
LINE
  8
21
 10
1.031086
 20
0.756337
 30
0.000000
 11
1.035924
 21
0.751500
 31
0.000000
  0
LINE
  8
21
 10
1.026249
 20
0.770850
 30
0.000000
 11
1.035924
 21
0.770850
 31
0.000000
  0
LINE
  8
21
 10
1.075358
 20
0.770850
 30
0.000000
 11
1.085033
 21
0.751500
 31
0.000000
  0
LINE
  8
21
 10
1.085033
 20
0.751500
 30
0.000000
 11
1.094708
 21
0.770850
 31
0.000000
  0
LINE
  8
21
 10
1.104823
 20
0.770850
 30
0.000000
 11
1.114498
 21
0.780525
 31
0.000000
  0
LINE
  8
21
 10
1.114498
 20
0.780525
 30
0.000000
 11
1.114498
 21
0.751500
 31
0.000000
  0
LINE
  8
21
 10
1.104823
 20
0.751500
 30
0.000000
 11
1.124173
 21
0.751500
 31
0.000000
  0
LINE
  8
21
 10
1.134288
 20
0.751500
 30
0.000000
 11
1.134288
 21
0.756337
 31
0.000000
  0
LINE
  8
21
 10
1.134288
 20
0.756337
 30
0.000000
 11
1.139125
 21
0.756337
 31
0.000000
  0
LINE
  8
21
 10
1.139125
 20
0.756337
 30
0.000000
 11
1.139125
 21
0.751500
 31
0.000000
  0
LINE
  8
21
 10
1.139125
 20
0.751500
 30
0.000000
 11
1.134288
 21
0.751500
 31
0.000000
  0
LINE
  8
21
 10
1.149021
 20
0.756337
 30
0.000000
 11
1.149021
 21
0.775687
 31
0.000000
  0
LINE
  8
21
 10
1.149021
 20
0.775687
 30
0.000000
 11
1.153858
 21
0.780525
 31
0.000000
  0
LINE
  8
21
 10
1.153858
 20
0.780525
 30
0.000000
 11
1.163533
 21
0.780525
 31
0.000000
  0
LINE
  8
21
 10
1.163533
 20
0.780525
 30
0.000000
 11
1.168370
 21
0.775687
 31
0.000000
  0
LINE
  8
21
 10
1.168370
 20
0.775687
 30
0.000000
 11
1.168370
 21
0.756337
 31
0.000000
  0
LINE
  8
21
 10
1.168370
 20
0.756337
 30
0.000000
 11
1.163533
 21
0.751500
 31
0.000000
  0
LINE
  8
21
 10
1.163533
 20
0.751500
 30
0.000000
 11
1.153858
 21
0.751500
 31
0.000000
  0
LINE
  8
21
 10
1.153858
 20
0.751500
 30
0.000000
 11
1.149021
 21
0.756337
 31
0.000000
  0
LINE
  8
21
 10
1.149021
 20
0.756337
 30
0.000000
 11
1.168370
 21
0.775687
 31
0.000000
  0
LINE
  8
21
 10
1.192998
 20
0.751500
 30
0.000000
 11
1.183323
 21
0.751500
 31
0.000000
  0
LINE
  8
21
 10
1.183323
 20
0.751500
 30
0.000000
 11
1.178486
 21
0.756337
 31
0.000000
  0
LINE
  8
21
 10
1.178486
 20
0.756337
 30
0.000000
 11
1.178486
 21
0.766012
 31
0.000000
  0
LINE
  8
21
 10
1.178486
 20
0.766012
 30
0.000000
 11
1.183323
 21
0.770850
 31
0.000000
  0
LINE
  8
21
 10
1.183323
 20
0.770850
 30
0.000000
 11
1.192998
 21
0.770850
 31
0.000000
  0
LINE
  8
21
 10
1.192998
 20
0.770850
 30
0.000000
 11
1.197836
 21
0.766012
 31
0.000000
  0
LINE
  8
21
 10
1.197836
 20
0.766012
 30
0.000000
 11
1.197836
 21
0.761175
 31
0.000000
  0
LINE
  8
21
 10
1.197836
 20
0.761175
 30
0.000000
 11
1.178486
 21
0.761175
 31
0.000000
  0
LINE
  8
21
 10
1.490850
 20
0.775687
 30
0.000000
 11
1.486012
 21
0.780525
 31
0.000000
  0
LINE
  8
21
 10
1.486012
 20
0.780525
 30
0.000000
 11
1.476337
 21
0.780525
 31
0.000000
  0
LINE
  8
21
 10
1.476337
 20
0.780525
 30
0.000000
 11
1.471500
 21
0.775687
 31
0.000000
  0
LINE
  8
21
 10
1.471500
 20
0.775687
 30
0.000000
 11
1.471500
 21
0.770850
 31
0.000000
  0
LINE
  8
21
 10
1.471500
 20
0.770850
 30
0.000000
 11
1.476337
 21
0.766012
 31
0.000000
  0
LINE
  8
21
 10
1.476337
 20
0.766012
 30
0.000000
 11
1.486012
 21
0.766012
 31
0.000000
  0
LINE
  8
21
 10
1.486012
 20
0.766012
 30
0.000000
 11
1.490850
 21
0.761175
 31
0.000000
  0
LINE
  8
21
 10
1.490850
 20
0.761175
 30
0.000000
 11
1.490850
 21
0.756337
 31
0.000000
  0
LINE
  8
21
 10
1.490850
 20
0.756337
 30
0.000000
 11
1.486012
 21
0.751500
 31
0.000000
  0
LINE
  8
21
 10
1.486012
 20
0.751500
 30
0.000000
 11
1.476337
 21
0.751500
 31
0.000000
  0
LINE
  8
21
 10
1.476337
 20
0.751500
 30
0.000000
 11
1.471500
 21
0.756337
 31
0.000000
  0
LINE
  8
21
 10
1.500965
 20
0.770850
 30
0.000000
 11
1.500965
 21
0.756337
 31
0.000000
  0
LINE
  8
21
 10
1.500965
 20
0.756337
 30
0.000000
 11
1.505803
 21
0.751500
 31
0.000000
  0
LINE
  8
21
 10
1.505803
 20
0.751500
 30
0.000000
 11
1.520315
 21
0.751500
 31
0.000000
  0
LINE
  8
21
 10
1.520315
 20
0.751500
 30
0.000000
 11
1.520315
 21
0.770850
 31
0.000000
  0
LINE
  8
21
 10
1.530430
 20
0.741825
 30
0.000000
 11
1.530430
 21
0.770850
 31
0.000000
  0
LINE
  8
21
 10
1.530430
 20
0.770850
 30
0.000000
 11
1.544943
 21
0.770850
 31
0.000000
  0
LINE
  8
21
 10
1.544943
 20
0.770850
 30
0.000000
 11
1.549780
 21
0.766012
 31
0.000000
  0
LINE
  8
21
 10
1.549780
 20
0.766012
 30
0.000000
 11
1.549780
 21
0.756337
 31
0.000000
  0
LINE
  8
21
 10
1.549780
 20
0.756337
 30
0.000000
 11
1.544943
 21
0.751500
 31
0.000000
  0
LINE
  8
21
 10
1.544943
 20
0.751500
 30
0.000000
 11
1.530430
 21
0.751500
 31
0.000000
  0
LINE
  8
21
 10
1.574408
 20
0.751500
 30
0.000000
 11
1.564733
 21
0.751500
 31
0.000000
  0
LINE
  8
21
 10
1.564733
 20
0.751500
 30
0.000000
 11
1.559896
 21
0.756337
 31
0.000000
  0
LINE
  8
21
 10
1.559896
 20
0.756337
 30
0.000000
 11
1.559896
 21
0.766012
 31
0.000000
  0
LINE
  8
21
 10
1.559896
 20
0.766012
 30
0.000000
 11
1.564733
 21
0.770850
 31
0.000000
  0
LINE
  8
21
 10
1.564733
 20
0.770850
 30
0.000000
 11
1.574408
 21
0.770850
 31
0.000000
  0
LINE
  8
21
 10
1.574408
 20
0.770850
 30
0.000000
 11
1.579245
 21
0.766012
 31
0.000000
  0
LINE
  8
21
 10
1.579245
 20
0.766012
 30
0.000000
 11
1.579245
 21
0.761175
 31
0.000000
  0
LINE
  8
21
 10
1.579245
 20
0.761175
 30
0.000000
 11
1.559896
 21
0.761175
 31
0.000000
  0
LINE
  8
21
 10
1.589361
 20
0.751500
 30
0.000000
 11
1.589361
 21
0.770850
 31
0.000000
  0
LINE
  8
21
 10
1.589361
 20
0.761175
 30
0.000000
 11
1.599036
 21
0.770850
 31
0.000000
  0
LINE
  8
21
 10
1.599036
 20
0.770850
 30
0.000000
 11
1.603873
 21
0.770850
 31
0.000000
  0
LINE
  8
21
 10
1.613915
 20
0.780525
 30
0.000000
 11
1.613915
 21
0.751500
 31
0.000000
  0
LINE
  8
21
 10
1.613915
 20
0.751500
 30
0.000000
 11
1.628427
 21
0.751500
 31
0.000000
  0
LINE
  8
21
 10
1.628427
 20
0.751500
 30
0.000000
 11
1.633265
 21
0.756337
 31
0.000000
  0
LINE
  8
21
 10
1.633265
 20
0.756337
 30
0.000000
 11
1.633265
 21
0.775687
 31
0.000000
  0
LINE
  8
21
 10
1.633265
 20
0.775687
 30
0.000000
 11
1.628427
 21
0.780525
 31
0.000000
  0
LINE
  8
21
 10
1.628427
 20
0.780525
 30
0.000000
 11
1.613915
 21
0.780525
 31
0.000000
  0
LINE
  8
21
 10
1.643380
 20
0.751500
 30
0.000000
 11
1.643380
 21
0.770850
 31
0.000000
  0
LINE
  8
21
 10
1.643380
 20
0.761175
 30
0.000000
 11
1.653055
 21
0.770850
 31
0.000000
  0
LINE
  8
21
 10
1.653055
 20
0.770850
 30
0.000000
 11
1.657892
 21
0.770850
 31
0.000000
  0
LINE
  8
21
 10
1.672772
 20
0.751500
 30
0.000000
 11
1.682447
 21
0.751500
 31
0.000000
  0
LINE
  8
21
 10
1.682447
 20
0.751500
 30
0.000000
 11
1.687284
 21
0.756337
 31
0.000000
  0
LINE
  8
21
 10
1.687284
 20
0.756337
 30
0.000000
 11
1.687284
 21
0.766012
 31
0.000000
  0
LINE
  8
21
 10
1.687284
 20
0.766012
 30
0.000000
 11
1.682447
 21
0.770850
 31
0.000000
  0
LINE
  8
21
 10
1.682447
 20
0.770850
 30
0.000000
 11
1.672772
 21
0.770850
 31
0.000000
  0
LINE
  8
21
 10
1.672772
 20
0.770850
 30
0.000000
 11
1.667934
 21
0.766012
 31
0.000000
  0
LINE
  8
21
 10
1.667934
 20
0.766012
 30
0.000000
 11
1.667934
 21
0.756337
 31
0.000000
  0
LINE
  8
21
 10
1.667934
 20
0.756337
 30
0.000000
 11
1.672772
 21
0.751500
 31
0.000000
  0
LINE
  8
21
 10
1.697400
 20
0.770850
 30
0.000000
 11
1.702237
 21
0.770850
 31
0.000000
  0
LINE
  8
21
 10
1.702237
 20
0.770850
 30
0.000000
 11
1.702237
 21
0.751500
 31
0.000000
  0
LINE
  8
21
 10
1.697400
 20
0.751500
 30
0.000000
 11
1.707074
 21
0.751500
 31
0.000000
  0
LINE
  8
21
 10
1.702237
 20
0.785362
 30
0.000000
 11
1.702237
 21
0.780525
 31
0.000000
  0
LINE
  8
21
 10
1.736393
 20
0.780525
 30
0.000000
 11
1.736393
 21
0.751500
 31
0.000000
  0
LINE
  8
21
 10
1.736393
 20
0.751500
 30
0.000000
 11
1.721880
 21
0.751500
 31
0.000000
  0
LINE
  8
21
 10
1.721880
 20
0.751500
 30
0.000000
 11
1.717043
 21
0.756337
 31
0.000000
  0
LINE
  8
21
 10
1.717043
 20
0.756337
 30
0.000000
 11
1.717043
 21
0.766012
 31
0.000000
  0
LINE
  8
21
 10
1.717043
 20
0.766012
 30
0.000000
 11
1.721880
 21
0.770850
 31
0.000000
  0
LINE
  8
21
 10
1.721880
 20
0.770850
 30
0.000000
 11
1.736393
 21
0.770850
 31
0.000000
  0
LINE
  8
21
 10
1.805439
 20
0.751500
 30
0.000000
 11
1.805439
 21
0.780525
 31
0.000000
  0
LINE
  8
21
 10
1.805439
 20
0.780525
 30
0.000000
 11
1.819951
 21
0.780525
 31
0.000000
  0
LINE
  8
21
 10
1.819951
 20
0.780525
 30
0.000000
 11
1.824788
 21
0.775687
 31
0.000000
  0
LINE
  8
21
 10
1.824788
 20
0.775687
 30
0.000000
 11
1.824788
 21
0.766012
 31
0.000000
  0
LINE
  8
21
 10
1.824788
 20
0.766012
 30
0.000000
 11
1.819951
 21
0.761175
 31
0.000000
  0
LINE
  8
21
 10
1.819951
 20
0.761175
 30
0.000000
 11
1.805439
 21
0.761175
 31
0.000000
  0
LINE
  8
21
 10
1.815113
 20
0.761175
 30
0.000000
 11
1.824788
 21
0.751500
 31
0.000000
  0
LINE
  8
21
 10
1.839741
 20
0.751500
 30
0.000000
 11
1.849416
 21
0.751500
 31
0.000000
  0
LINE
  8
21
 10
1.849416
 20
0.751500
 30
0.000000
 11
1.854254
 21
0.756337
 31
0.000000
  0
LINE
  8
21
 10
1.854254
 20
0.756337
 30
0.000000
 11
1.854254
 21
0.766012
 31
0.000000
  0
LINE
  8
21
 10
1.854254
 20
0.766012
 30
0.000000
 11
1.849416
 21
0.770850
 31
0.000000
  0
LINE
  8
21
 10
1.849416
 20
0.770850
 30
0.000000
 11
1.839741
 21
0.770850
 31
0.000000
  0
LINE
  8
21
 10
1.839741
 20
0.770850
 30
0.000000
 11
1.834904
 21
0.766012
 31
0.000000
  0
LINE
  8
21
 10
1.834904
 20
0.766012
 30
0.000000
 11
1.834904
 21
0.756337
 31
0.000000
  0
LINE
  8
21
 10
1.834904
 20
0.756337
 30
0.000000
 11
1.839741
 21
0.751500
 31
0.000000
  0
LINE
  8
21
 10
1.864369
 20
0.780525
 30
0.000000
 11
1.864369
 21
0.751500
 31
0.000000
  0
LINE
  8
21
 10
1.864369
 20
0.751500
 30
0.000000
 11
1.878881
 21
0.751500
 31
0.000000
  0
LINE
  8
21
 10
1.878881
 20
0.751500
 30
0.000000
 11
1.883719
 21
0.756337
 31
0.000000
  0
LINE
  8
21
 10
1.883719
 20
0.756337
 30
0.000000
 11
1.883719
 21
0.766012
 31
0.000000
  0
LINE
  8
21
 10
1.883719
 20
0.766012
 30
0.000000
 11
1.878881
 21
0.770850
 31
0.000000
  0
LINE
  8
21
 10
1.878881
 20
0.770850
 30
0.000000
 11
1.864369
 21
0.770850
 31
0.000000
  0
LINE
  8
21
 10
1.898672
 20
0.751500
 30
0.000000
 11
1.908346
 21
0.751500
 31
0.000000
  0
LINE
  8
21
 10
1.908346
 20
0.751500
 30
0.000000
 11
1.913184
 21
0.756337
 31
0.000000
  0
LINE
  8
21
 10
1.913184
 20
0.756337
 30
0.000000
 11
1.913184
 21
0.766012
 31
0.000000
  0
LINE
  8
21
 10
1.913184
 20
0.766012
 30
0.000000
 11
1.908346
 21
0.770850
 31
0.000000
  0
LINE
  8
21
 10
1.908346
 20
0.770850
 30
0.000000
 11
1.898672
 21
0.770850
 31
0.000000
  0
LINE
  8
21
 10
1.898672
 20
0.770850
 30
0.000000
 11
1.893834
 21
0.766012
 31
0.000000
  0
LINE
  8
21
 10
1.893834
 20
0.766012
 30
0.000000
 11
1.893834
 21
0.756337
 31
0.000000
  0
LINE
  8
21
 10
1.893834
 20
0.756337
 30
0.000000
 11
1.898672
 21
0.751500
 31
0.000000
  0
LINE
  8
21
 10
1.928137
 20
0.775687
 30
0.000000
 11
1.928137
 21
0.756337
 31
0.000000
  0
LINE
  8
21
 10
1.928137
 20
0.756337
 30
0.000000
 11
1.932974
 21
0.751500
 31
0.000000
  0
LINE
  8
21
 10
1.923299
 20
0.770850
 30
0.000000
 11
1.932974
 21
0.770850
 31
0.000000
  0
LINE
  8
21
 10
1.942943
 20
0.751500
 30
0.000000
 11
1.957455
 21
0.751500
 31
0.000000
  0
LINE
  8
21
 10
1.957455
 20
0.751500
 30
0.000000
 11
1.962293
 21
0.756337
 31
0.000000
  0
LINE
  8
21
 10
1.962293
 20
0.756337
 30
0.000000
 11
1.957455
 21
0.761175
 31
0.000000
  0
LINE
  8
21
 10
1.957455
 20
0.761175
 30
0.000000
 11
1.947780
 21
0.761175
 31
0.000000
  0
LINE
  8
21
 10
1.947780
 20
0.761175
 30
0.000000
 11
1.942943
 21
0.766012
 31
0.000000
  0
LINE
  8
21
 10
1.942943
 20
0.766012
 30
0.000000
 11
1.947780
 21
0.770850
 31
0.000000
  0
LINE
  8
21
 10
1.947780
 20
0.770850
 30
0.000000
 11
1.962293
 21
0.770850
 31
0.000000
  0
LINE
  8
21
 10
1.972408
 20
0.751500
 30
0.000000
 11
1.972408
 21
0.756337
 31
0.000000
  0
LINE
  8
21
 10
1.972408
 20
0.756337
 30
0.000000
 11
1.977245
 21
0.756337
 31
0.000000
  0
LINE
  8
21
 10
1.977245
 20
0.756337
 30
0.000000
 11
1.977245
 21
0.751500
 31
0.000000
  0
LINE
  8
21
 10
1.977245
 20
0.751500
 30
0.000000
 11
1.972408
 21
0.751500
 31
0.000000
  0
LINE
  8
21
 10
2.006490
 20
0.770850
 30
0.000000
 11
1.991978
 21
0.770850
 31
0.000000
  0
LINE
  8
21
 10
1.991978
 20
0.770850
 30
0.000000
 11
1.987141
 21
0.766012
 31
0.000000
  0
LINE
  8
21
 10
1.987141
 20
0.766012
 30
0.000000
 11
1.987141
 21
0.756337
 31
0.000000
  0
LINE
  8
21
 10
1.987141
 20
0.756337
 30
0.000000
 11
1.991978
 21
0.751500
 31
0.000000
  0
LINE
  8
21
 10
1.991978
 20
0.751500
 30
0.000000
 11
2.006490
 21
0.751500
 31
0.000000
  0
LINE
  8
21
 10
2.021443
 20
0.751500
 30
0.000000
 11
2.031118
 21
0.751500
 31
0.000000
  0
LINE
  8
21
 10
2.031118
 20
0.751500
 30
0.000000
 11
2.035955
 21
0.756337
 31
0.000000
  0
LINE
  8
21
 10
2.035955
 20
0.756337
 30
0.000000
 11
2.035955
 21
0.766012
 31
0.000000
  0
LINE
  8
21
 10
2.035955
 20
0.766012
 30
0.000000
 11
2.031118
 21
0.770850
 31
0.000000
  0
LINE
  8
21
 10
2.031118
 20
0.770850
 30
0.000000
 11
2.021443
 21
0.770850
 31
0.000000
  0
LINE
  8
21
 10
2.021443
 20
0.770850
 30
0.000000
 11
2.016606
 21
0.766012
 31
0.000000
  0
LINE
  8
21
 10
2.016606
 20
0.766012
 30
0.000000
 11
2.016606
 21
0.756337
 31
0.000000
  0
LINE
  8
21
 10
2.016606
 20
0.756337
 30
0.000000
 11
2.021443
 21
0.751500
 31
0.000000
  0
LINE
  8
21
 10
2.046071
 20
0.751500
 30
0.000000
 11
2.046071
 21
0.770850
 31
0.000000
  0
LINE
  8
21
 10
2.046071
 20
0.770850
 30
0.000000
 11
2.050908
 21
0.770850
 31
0.000000
  0
LINE
  8
21
 10
2.050908
 20
0.770850
 30
0.000000
 11
2.055746
 21
0.766012
 31
0.000000
  0
LINE
  8
21
 10
2.055746
 20
0.766012
 30
0.000000
 11
2.055746
 21
0.751500
 31
0.000000
  0
LINE
  8
21
 10
2.055746
 20
0.766012
 30
0.000000
 11
2.060583
 21
0.770850
 31
0.000000
  0
LINE
  8
21
 10
2.060583
 20
0.770850
 30
0.000000
 11
2.065421
 21
0.766012
 31
0.000000
  0
LINE
  8
21
 10
2.065421
 20
0.766012
 30
0.000000
 11
2.065421
 21
0.751500
 31
0.000000
  0
LINE
  8
21
 10
0.402000
 20
0.062000
 30
0.000000
 11
0.402000
 21
0.092693
 31
0.000000
  0
LINE
  8
21
 10
0.402000
 20
0.092693
 30
0.000000
 11
0.417346
 21
0.108039
 31
0.000000
  0
LINE
  8
21
 10
0.417346
 20
0.108039
 30
0.000000
 11
0.432693
 21
0.092693
 31
0.000000
  0
LINE
  8
21
 10
0.432693
 20
0.092693
 30
0.000000
 11
0.432693
 21
0.062000
 31
0.000000
  0
LINE
  8
21
 10
0.402000
 20
0.085020
 30
0.000000
 11
0.432693
 21
0.085020
 31
0.000000
  0
LINE
  8
21
 10
1.292000
 20
0.062000
 30
0.000000
 11
1.292000
 21
0.092693
 31
0.000000
  0
LINE
  8
21
 10
1.292000
 20
0.092693
 30
0.000000
 11
1.307346
 21
0.108039
 31
0.000000
  0
LINE
  8
21
 10
1.307346
 20
0.108039
 30
0.000000
 11
1.322693
 21
0.092693
 31
0.000000
  0
LINE
  8
21
 10
1.322693
 20
0.092693
 30
0.000000
 11
1.322693
 21
0.062000
 31
0.000000
  0
LINE
  8
21
 10
1.292000
 20
0.085020
 30
0.000000
 11
1.322693
 21
0.085020
 31
0.000000
  0
LINE
  8
21
 10
1.292000
 20
0.192000
 30
0.000000
 11
1.292000
 21
0.238039
 31
0.000000
  0
LINE
  8
21
 10
1.292000
 20
0.238039
 30
0.000000
 11
1.315020
 21
0.238039
 31
0.000000
  0
LINE
  8
21
 10
1.315020
 20
0.238039
 30
0.000000
 11
1.322693
 21
0.230366
 31
0.000000
  0
LINE
  8
21
 10
1.322693
 20
0.230366
 30
0.000000
 11
1.322693
 21
0.222693
 31
0.000000
  0
LINE
  8
21
 10
1.322693
 20
0.222693
 30
0.000000
 11
1.315020
 21
0.215020
 31
0.000000
  0
LINE
  8
21
 10
1.315020
 20
0.215020
 30
0.000000
 11
1.322693
 21
0.207346
 31
0.000000
  0
LINE
  8
21
 10
1.322693
 20
0.207346
 30
0.000000
 11
1.322693
 21
0.199673
 31
0.000000
  0
LINE
  8
21
 10
1.322693
 20
0.199673
 30
0.000000
 11
1.315020
 21
0.192000
 31
0.000000
  0
LINE
  8
21
 10
1.315020
 20
0.192000
 30
0.000000
 11
1.292000
 21
0.192000
 31
0.000000
  0
LINE
  8
21
 10
1.292000
 20
0.215020
 30
0.000000
 11
1.315020
 21
0.215020
 31
0.000000
  0
LINE
  8
21
 10
0.402000
 20
0.202000
 30
0.000000
 11
0.402000
 21
0.248039
 31
0.000000
  0
LINE
  8
21
 10
0.402000
 20
0.248039
 30
0.000000
 11
0.425020
 21
0.248039
 31
0.000000
  0
LINE
  8
21
 10
0.425020
 20
0.248039
 30
0.000000
 11
0.432693
 21
0.240366
 31
0.000000
  0
LINE
  8
21
 10
0.432693
 20
0.240366
 30
0.000000
 11
0.432693
 21
0.232693
 31
0.000000
  0
LINE
  8
21
 10
0.432693
 20
0.232693
 30
0.000000
 11
0.425020
 21
0.225020
 31
0.000000
  0
LINE
  8
21
 10
0.425020
 20
0.225020
 30
0.000000
 11
0.432693
 21
0.217346
 31
0.000000
  0
LINE
  8
21
 10
0.432693
 20
0.217346
 30
0.000000
 11
0.432693
 21
0.209673
 31
0.000000
  0
LINE
  8
21
 10
0.432693
 20
0.209673
 30
0.000000
 11
0.425020
 21
0.202000
 31
0.000000
  0
LINE
  8
21
 10
0.425020
 20
0.202000
 30
0.000000
 11
0.402000
 21
0.202000
 31
0.000000
  0
LINE
  8
21
 10
0.402000
 20
0.225020
 30
0.000000
 11
0.425020
 21
0.225020
 31
0.000000
  0
POINT
  8
23
 10
2.050000
 20
0.310000
 30
0.000000
  0
LINE
  8
51
 10
2.035984
 20
0.327008
 30
0.000000
 11
2.064016
 21
0.327008
 31
0.000000
  0
LINE
  8
51
 10
2.035984
 20
0.293504
 30
0.000000
 11
2.064016
 21
0.293504
 31
0.000000
  0
INSERT
  8
51
  2
RECT
 10
2.026844
 20
0.310201
 30
0.000000
 41
0.019689
 42
0.037402
 43
1.000000
 50
0.000000
  0
INSERT
  8
51
  2
RECT
 10
2.072844
 20
0.310201
 30
0.000000
 41
0.019689
 42
0.037402
 43
1.000000
 50
0.000000
  0
POINT
  8
23
 10
1.110000
 20
0.320000
 30
0.000000
  0
LINE
  8
51
 10
1.095984
 20
0.337008
 30
0.000000
 11
1.124016
 21
0.337008
 31
0.000000
  0
LINE
  8
51
 10
1.095984
 20
0.303504
 30
0.000000
 11
1.124016
 21
0.303504
 31
0.000000
  0
INSERT
  8
51
  2
RECT
 10
1.086844
 20
0.320201
 30
0.000000
 41
0.019689
 42
0.037402
 43
1.000000
 50
0.000000
  0
INSERT
  8
51
  2
RECT
 10
1.132844
 20
0.320201
 30
0.000000
 41
0.019689
 42
0.037402
 43
1.000000
 50
0.000000
  0
POINT
  8
23
 10
1.370000
 20
0.700000
 30
0.000000
  0
LINE
  8
51
 10
1.352992
 20
0.685984
 30
0.000000
 11
1.352992
 21
0.714016
 31
0.000000
  0
LINE
  8
51
 10
1.386496
 20
0.685984
 30
0.000000
 11
1.386496
 21
0.714016
 31
0.000000
  0
INSERT
  8
51
  2
RECT
 10
1.369799
 20
0.676844
 30
0.000000
 41
0.019689
 42
0.037402
 43
1.000000
 50
90.000000
  0
INSERT
  8
51
  2
RECT
 10
1.369799
 20
0.722844
 30
0.000000
 41
0.019689
 42
0.037402
 43
1.000000
 50
90.000000
  0
POINT
  8
23
 10
1.270000
 20
0.700000
 30
0.000000
  0
LINE
  8
51
 10
1.252992
 20
0.685984
 30
0.000000
 11
1.252992
 21
0.714016
 31
0.000000
  0
LINE
  8
51
 10
1.286496
 20
0.685984
 30
0.000000
 11
1.286496
 21
0.714016
 31
0.000000
  0
INSERT
  8
51
  2
RECT
 10
1.269799
 20
0.676844
 30
0.000000
 41
0.019689
 42
0.037402
 43
1.000000
 50
90.000000
  0
INSERT
  8
51
  2
RECT
 10
1.269799
 20
0.722844
 30
0.000000
 41
0.019689
 42
0.037402
 43
1.000000
 50
90.000000
  0
POINT
  8
23
 10
2.290000
 20
0.690000
 30
0.000000
  0
LINE
  8
51
 10
2.272992
 20
0.675984
 30
0.000000
 11
2.272992
 21
0.704016
 31
0.000000
  0
LINE
  8
51
 10
2.306496
 20
0.675984
 30
0.000000
 11
2.306496
 21
0.704016
 31
0.000000
  0
INSERT
  8
51
  2
RECT
 10
2.289799
 20
0.666844
 30
0.000000
 41
0.019689
 42
0.037402
 43
1.000000
 50
90.000000
  0
INSERT
  8
51
  2
RECT
 10
2.289799
 20
0.712844
 30
0.000000
 41
0.019689
 42
0.037402
 43
1.000000
 50
90.000000
  0
POINT
  8
23
 10
2.200000
 20
0.690000
 30
0.000000
  0
LINE
  8
51
 10
2.182992
 20
0.675984
 30
0.000000
 11
2.182992
 21
0.704016
 31
0.000000
  0
LINE
  8
51
 10
2.216496
 20
0.675984
 30
0.000000
 11
2.216496
 21
0.704016
 31
0.000000
  0
INSERT
  8
51
  2
RECT
 10
2.199799
 20
0.666844
 30
0.000000
 41
0.019689
 42
0.037402
 43
1.000000
 50
90.000000
  0
INSERT
  8
51
  2
RECT
 10
2.199799
 20
0.712844
 30
0.000000
 41
0.019689
 42
0.037402
 43
1.000000
 50
90.000000
  0
POINT
  8
23
 10
0.830000
 20
0.540000
 30
0.000000
  0
LINE
  8
51
 10
1.007165
 20
0.579370
 30
0.000000
 11
1.007165
 21
0.500630
 31
0.000000
  0
LINE
  8
51
 10
0.652835
 20
0.579370
 30
0.000000
 11
1.007165
 21
0.579370
 31
0.000000
  0
LINE
  8
51
 10
0.652835
 20
0.500630
 30
0.000000
 11
0.652835
 21
0.579370
 31
0.000000
  0
LINE
  8
51
 10
1.007165
 20
0.500630
 30
0.000000
 11
0.652835
 21
0.500630
 31
0.000000
  0
CIRCLE
  8
21
 10
0.987972
 20
0.558701
 30
0.000000
 40
0.009843
  0
POINT
  8
23
 10
1.770000
 20
0.540000
 30
0.000000
  0
LINE
  8
51
 10
1.947165
 20
0.579370
 30
0.000000
 11
1.947165
 21
0.500630
 31
0.000000
  0
LINE
  8
51
 10
1.592835
 20
0.579370
 30
0.000000
 11
1.947165
 21
0.579370
 31
0.000000
  0
LINE
  8
51
 10
1.592835
 20
0.500630
 30
0.000000
 11
1.592835
 21
0.579370
 31
0.000000
  0
LINE
  8
51
 10
1.947165
 20
0.500630
 30
0.000000
 11
1.592835
 21
0.500630
 31
0.000000
  0
CIRCLE
  8
21
 10
1.927972
 20
0.558701
 30
0.000000
 40
0.009843
  0
POINT
  8
23
 10
0.510000
 20
0.220000
 30
0.000000
  0
LINE
  8
21
 10
0.478504
 20
0.259370
 30
0.000000
 11
0.541496
 21
0.259370
 31
0.000000
  0
ARC
  8
21
 10
0.477520
 20
0.191457
 30
0.000000
 40
0.010871
 50
185.194429
 51
275.194429
  0
ARC
  8
21
 10
0.542480
 20
0.191457
 30
0.000000
 40
0.010871
 50
264.805571
 51
354.805571
  0
ARC
  8
21
 10
0.542490
 20
0.248555
 30
0.000000
 40
0.010861
 50
5.137076
 51
95.251782
  0
ARC
  8
21
 10
0.477520
 20
0.248543
 30
0.000000
 40
0.010871
 50
84.805571
 51
174.805571
  0
LINE
  8
21
 10
0.466693
 20
0.249528
 30
0.000000
 11
0.466693
 21
0.190472
 31
0.000000
  0
LINE
  8
21
 10
0.553307
 20
0.249528
 30
0.000000
 11
0.553307
 21
0.190472
 31
0.000000
  0
LINE
  8
21
 10
0.541496
 20
0.180630
 30
0.000000
 11
0.478504
 21
0.180630
 31
0.000000
  0
POINT
  8
23
 10
1.380000
 20
0.080000
 30
0.000000
  0
LINE
  8
21
 10
1.348504
 20
0.119370
 30
0.000000
 11
1.411496
 21
0.119370
 31
0.000000
  0
ARC
  8
21
 10
1.347520
 20
0.051457
 30
0.000000
 40
0.010871
 50
185.194429
 51
275.194429
  0
ARC
  8
21
 10
1.412480
 20
0.051457
 30
0.000000
 40
0.010871
 50
264.805571
 51
354.805571
  0
ARC
  8
21
 10
1.412490
 20
0.108555
 30
0.000000
 40
0.010861
 50
5.137076
 51
95.251782
  0
ARC
  8
21
 10
1.347520
 20
0.108543
 30
0.000000
 40
0.010871
 50
84.805571
 51
174.805571
  0
LINE
  8
21
 10
1.336693
 20
0.109528
 30
0.000000
 11
1.336693
 21
0.050472
 31
0.000000
  0
LINE
  8
21
 10
1.423307
 20
0.109528
 30
0.000000
 11
1.423307
 21
0.050472
 31
0.000000
  0
LINE
  8
21
 10
1.411496
 20
0.040630
 30
0.000000
 11
1.348504
 21
0.040630
 31
0.000000
  0
POINT
  8
23
 10
1.380000
 20
0.210000
 30
0.000000
  0
LINE
  8
21
 10
1.348504
 20
0.249370
 30
0.000000
 11
1.411496
 21
0.249370
 31
0.000000
  0
ARC
  8
21
 10
1.347520
 20
0.181457
 30
0.000000
 40
0.010871
 50
185.194429
 51
275.194429
  0
ARC
  8
21
 10
1.412480
 20
0.181457
 30
0.000000
 40
0.010871
 50
264.805571
 51
354.805571
  0
ARC
  8
21
 10
1.412490
 20
0.238555
 30
0.000000
 40
0.010861
 50
5.137076
 51
95.251782
  0
ARC
  8
21
 10
1.347520
 20
0.238543
 30
0.000000
 40
0.010871
 50
84.805571
 51
174.805571
  0
LINE
  8
21
 10
1.336693
 20
0.239528
 30
0.000000
 11
1.336693
 21
0.180472
 31
0.000000
  0
LINE
  8
21
 10
1.423307
 20
0.239528
 30
0.000000
 11
1.423307
 21
0.180472
 31
0.000000
  0
LINE
  8
21
 10
1.411496
 20
0.170630
 30
0.000000
 11
1.348504
 21
0.170630
 31
0.000000
  0
POINT
  8
23
 10
0.300000
 20
0.200000
 30
0.000000
  0
LINE
  8
21
 10
0.350000
 20
0.225000
 30
0.000000
 11
0.350000
 21
0.175000
 31
0.000000
  0
LINE
  8
21
 10
0.350000
 20
0.175000
 30
0.000000
 11
0.325000
 21
0.150000
 31
0.000000
  0
LINE
  8
21
 10
0.275000
 20
0.150000
 30
0.000000
 11
0.250000
 21
0.175000
 31
0.000000
  0
LINE
  8
21
 10
0.325000
 20
0.150000
 30
0.000000
 11
0.350000
 21
0.125000
 31
0.000000
  0
LINE
  8
21
 10
0.350000
 20
0.125000
 30
0.000000
 11
0.350000
 21
0.075000
 31
0.000000
  0
LINE
  8
21
 10
0.350000
 20
0.075000
 30
0.000000
 11
0.325000
 21
0.050000
 31
0.000000
  0
LINE
  8
21
 10
0.275000
 20
0.050000
 30
0.000000
 11
0.250000
 21
0.075000
 31
0.000000
  0
LINE
  8
21
 10
0.250000
 20
0.075000
 30
0.000000
 11
0.250000
 21
0.125000
 31
0.000000
  0
LINE
  8
21
 10
0.250000
 20
0.125000
 30
0.000000
 11
0.275000
 21
0.150000
 31
0.000000
  0
LINE
  8
21
 10
0.325000
 20
0.250000
 30
0.000000
 11
0.275000
 21
0.250000
 31
0.000000
  0
LINE
  8
21
 10
0.350000
 20
0.225000
 30
0.000000
 11
0.325000
 21
0.250000
 31
0.000000
  0
LINE
  8
21
 10
0.275000
 20
0.250000
 30
0.000000
 11
0.250000
 21
0.225000
 31
0.000000
  0
LINE
  8
21
 10
0.250000
 20
0.175000
 30
0.000000
 11
0.250000
 21
0.225000
 31
0.000000
  0
LINE
  8
21
 10
0.325000
 20
0.050000
 30
0.000000
 11
0.275000
 21
0.050000
 31
0.000000
  0
INSERT
  8
51
  2
RECT
 10
0.300000
 20
0.100000
 30
0.000000
 41
0.020000
 42
0.020000
 43
1.000000
 50
270.000000
  0
INSERT
  8
51
  2
RECT
 10
0.300000
 20
0.200000
 30
0.000000
 41
0.020000
 42
0.020000
 43
1.000000
 50
270.000000
  0
INSERT
  8
17
  2
ROUNDP
 10
0.300000
 20
0.200000
 30
0.000000
 41
0.074000
 42
0.074000
 43
1.000000
 50
0.000000
  0
INSERT
  8
17
  2
ROUNDP
 10
0.300000
 20
0.200000
 30
0.000000
 41
0.074000
 42
0.074000
 43
1.000000
 50
0.000000
  0
INSERT
  8
17
  2
ROUNDP
 10
0.300000
 20
0.100000
 30
0.000000
 41
0.074000
 42
0.074000
 43
1.000000
 50
0.000000
  0
INSERT
  8
17
  2
ROUNDP
 10
0.300000
 20
0.100000
 30
0.000000
 41
0.074000
 42
0.074000
 43
1.000000
 50
0.000000
  0
POINT
  8
23
 10
0.300000
 20
0.700000
 30
0.000000
  0
LINE
  8
21
 10
0.350000
 20
0.425000
 30
0.000000
 11
0.350000
 21
0.375000
 31
0.000000
  0
LINE
  8
21
 10
0.350000
 20
0.375000
 30
0.000000
 11
0.325000
 21
0.350000
 31
0.000000
  0
LINE
  8
21
 10
0.275000
 20
0.350000
 30
0.000000
 11
0.250000
 21
0.375000
 31
0.000000
  0
LINE
  8
21
 10
0.325000
 20
0.350000
 30
0.000000
 11
0.350000
 21
0.325000
 31
0.000000
  0
LINE
  8
21
 10
0.350000
 20
0.325000
 30
0.000000
 11
0.350000
 21
0.275000
 31
0.000000
  0
LINE
  8
21
 10
0.350000
 20
0.275000
 30
0.000000
 11
0.325000
 21
0.250000
 31
0.000000
  0
LINE
  8
21
 10
0.275000
 20
0.250000
 30
0.000000
 11
0.250000
 21
0.275000
 31
0.000000
  0
LINE
  8
21
 10
0.250000
 20
0.275000
 30
0.000000
 11
0.250000
 21
0.325000
 31
0.000000
  0
LINE
  8
21
 10
0.250000
 20
0.325000
 30
0.000000
 11
0.275000
 21
0.350000
 31
0.000000
  0
LINE
  8
21
 10
0.325000
 20
0.550000
 30
0.000000
 11
0.350000
 21
0.525000
 31
0.000000
  0
LINE
  8
21
 10
0.350000
 20
0.525000
 30
0.000000
 11
0.350000
 21
0.475000
 31
0.000000
  0
LINE
  8
21
 10
0.350000
 20
0.475000
 30
0.000000
 11
0.325000
 21
0.450000
 31
0.000000
  0
LINE
  8
21
 10
0.275000
 20
0.450000
 30
0.000000
 11
0.250000
 21
0.475000
 31
0.000000
  0
LINE
  8
21
 10
0.250000
 20
0.475000
 30
0.000000
 11
0.250000
 21
0.525000
 31
0.000000
  0
LINE
  8
21
 10
0.250000
 20
0.525000
 30
0.000000
 11
0.275000
 21
0.550000
 31
0.000000
  0
LINE
  8
21
 10
0.350000
 20
0.425000
 30
0.000000
 11
0.325000
 21
0.450000
 31
0.000000
  0
LINE
  8
21
 10
0.275000
 20
0.450000
 30
0.000000
 11
0.250000
 21
0.425000
 31
0.000000
  0
LINE
  8
21
 10
0.250000
 20
0.375000
 30
0.000000
 11
0.250000
 21
0.425000
 31
0.000000
  0
LINE
  8
21
 10
0.350000
 20
0.725000
 30
0.000000
 11
0.350000
 21
0.675000
 31
0.000000
  0
LINE
  8
21
 10
0.350000
 20
0.675000
 30
0.000000
 11
0.325000
 21
0.650000
 31
0.000000
  0
LINE
  8
21
 10
0.275000
 20
0.650000
 30
0.000000
 11
0.250000
 21
0.675000
 31
0.000000
  0
LINE
  8
21
 10
0.325000
 20
0.650000
 30
0.000000
 11
0.350000
 21
0.625000
 31
0.000000
  0
LINE
  8
21
 10
0.350000
 20
0.625000
 30
0.000000
 11
0.350000
 21
0.575000
 31
0.000000
  0
LINE
  8
21
 10
0.350000
 20
0.575000
 30
0.000000
 11
0.325000
 21
0.550000
 31
0.000000
  0
LINE
  8
21
 10
0.275000
 20
0.550000
 30
0.000000
 11
0.250000
 21
0.575000
 31
0.000000
  0
LINE
  8
21
 10
0.250000
 20
0.575000
 30
0.000000
 11
0.250000
 21
0.625000
 31
0.000000
  0
LINE
  8
21
 10
0.250000
 20
0.625000
 30
0.000000
 11
0.275000
 21
0.650000
 31
0.000000
  0
LINE
  8
21
 10
0.325000
 20
0.750000
 30
0.000000
 11
0.275000
 21
0.750000
 31
0.000000
  0
LINE
  8
21
 10
0.350000
 20
0.725000
 30
0.000000
 11
0.325000
 21
0.750000
 31
0.000000
  0
LINE
  8
21
 10
0.275000
 20
0.750000
 30
0.000000
 11
0.250000
 21
0.725000
 31
0.000000
  0
LINE
  8
21
 10
0.250000
 20
0.675000
 30
0.000000
 11
0.250000
 21
0.725000
 31
0.000000
  0
LINE
  8
21
 10
0.325000
 20
0.250000
 30
0.000000
 11
0.275000
 21
0.250000
 31
0.000000
  0
INSERT
  8
51
  2
RECT
 10
0.300000
 20
0.300000
 30
0.000000
 41
0.020000
 42
0.020000
 43
1.000000
 50
270.000000
  0
INSERT
  8
51
  2
RECT
 10
0.300000
 20
0.400000
 30
0.000000
 41
0.020000
 42
0.020000
 43
1.000000
 50
270.000000
  0
INSERT
  8
51
  2
RECT
 10
0.300000
 20
0.500000
 30
0.000000
 41
0.020000
 42
0.020000
 43
1.000000
 50
270.000000
  0
INSERT
  8
51
  2
RECT
 10
0.300000
 20
0.600000
 30
0.000000
 41
0.020000
 42
0.020000
 43
1.000000
 50
270.000000
  0
INSERT
  8
51
  2
RECT
 10
0.300000
 20
0.700000
 30
0.000000
 41
0.020000
 42
0.020000
 43
1.000000
 50
270.000000
  0
INSERT
  8
17
  2
ROUNDP
 10
0.300000
 20
0.700000
 30
0.000000
 41
0.074000
 42
0.074000
 43
1.000000
 50
0.000000
  0
INSERT
  8
17
  2
ROUNDP
 10
0.300000
 20
0.700000
 30
0.000000
 41
0.074000
 42
0.074000
 43
1.000000
 50
0.000000
  0
INSERT
  8
17
  2
ROUNDP
 10
0.300000
 20
0.600000
 30
0.000000
 41
0.074000
 42
0.074000
 43
1.000000
 50
0.000000
  0
INSERT
  8
17
  2
ROUNDP
 10
0.300000
 20
0.600000
 30
0.000000
 41
0.074000
 42
0.074000
 43
1.000000
 50
0.000000
  0
INSERT
  8
17
  2
ROUNDP
 10
0.300000
 20
0.500000
 30
0.000000
 41
0.074000
 42
0.074000
 43
1.000000
 50
0.000000
  0
INSERT
  8
17
  2
ROUNDP
 10
0.300000
 20
0.500000
 30
0.000000
 41
0.074000
 42
0.074000
 43
1.000000
 50
0.000000
  0
INSERT
  8
17
  2
ROUNDP
 10
0.300000
 20
0.400000
 30
0.000000
 41
0.074000
 42
0.074000
 43
1.000000
 50
0.000000
  0
INSERT
  8
17
  2
ROUNDP
 10
0.300000
 20
0.400000
 30
0.000000
 41
0.074000
 42
0.074000
 43
1.000000
 50
0.000000
  0
INSERT
  8
17
  2
ROUNDP
 10
0.300000
 20
0.300000
 30
0.000000
 41
0.074000
 42
0.074000
 43
1.000000
 50
0.000000
  0
INSERT
  8
17
  2
ROUNDP
 10
0.300000
 20
0.300000
 30
0.000000
 41
0.074000
 42
0.074000
 43
1.000000
 50
0.000000
  0
POINT
  8
23
 10
0.810000
 20
0.150000
 30
0.000000
  0
LINE
  8
21
 10
1.085000
 20
0.200000
 30
0.000000
 11
1.135000
 21
0.200000
 31
0.000000
  0
LINE
  8
21
 10
1.135000
 20
0.200000
 30
0.000000
 11
1.160000
 21
0.175000
 31
0.000000
  0
LINE
  8
21
 10
1.160000
 20
0.125000
 30
0.000000
 11
1.135000
 21
0.100000
 31
0.000000
  0
LINE
  8
21
 10
1.160000
 20
0.175000
 30
0.000000
 11
1.185000
 21
0.200000
 31
0.000000
  0
LINE
  8
21
 10
1.185000
 20
0.200000
 30
0.000000
 11
1.235000
 21
0.200000
 31
0.000000
  0
LINE
  8
21
 10
1.235000
 20
0.200000
 30
0.000000
 11
1.260000
 21
0.175000
 31
0.000000
  0
LINE
  8
21
 10
1.260000
 20
0.125000
 30
0.000000
 11
1.235000
 21
0.100000
 31
0.000000
  0
LINE
  8
21
 10
1.235000
 20
0.100000
 30
0.000000
 11
1.185000
 21
0.100000
 31
0.000000
  0
LINE
  8
21
 10
1.185000
 20
0.100000
 30
0.000000
 11
1.160000
 21
0.125000
 31
0.000000
  0
LINE
  8
21
 10
0.960000
 20
0.175000
 30
0.000000
 11
0.985000
 21
0.200000
 31
0.000000
  0
LINE
  8
21
 10
0.985000
 20
0.200000
 30
0.000000
 11
1.035000
 21
0.200000
 31
0.000000
  0
LINE
  8
21
 10
1.035000
 20
0.200000
 30
0.000000
 11
1.060000
 21
0.175000
 31
0.000000
  0
LINE
  8
21
 10
1.060000
 20
0.125000
 30
0.000000
 11
1.035000
 21
0.100000
 31
0.000000
  0
LINE
  8
21
 10
1.035000
 20
0.100000
 30
0.000000
 11
0.985000
 21
0.100000
 31
0.000000
  0
LINE
  8
21
 10
0.985000
 20
0.100000
 30
0.000000
 11
0.960000
 21
0.125000
 31
0.000000
  0
LINE
  8
21
 10
1.085000
 20
0.200000
 30
0.000000
 11
1.060000
 21
0.175000
 31
0.000000
  0
LINE
  8
21
 10
1.060000
 20
0.125000
 30
0.000000
 11
1.085000
 21
0.100000
 31
0.000000
  0
LINE
  8
21
 10
1.135000
 20
0.100000
 30
0.000000
 11
1.085000
 21
0.100000
 31
0.000000
  0
LINE
  8
21
 10
0.785000
 20
0.200000
 30
0.000000
 11
0.835000
 21
0.200000
 31
0.000000
  0
LINE
  8
21
 10
0.835000
 20
0.200000
 30
0.000000
 11
0.860000
 21
0.175000
 31
0.000000
  0
LINE
  8
21
 10
0.860000
 20
0.125000
 30
0.000000
 11
0.835000
 21
0.100000
 31
0.000000
  0
LINE
  8
21
 10
0.860000
 20
0.175000
 30
0.000000
 11
0.885000
 21
0.200000
 31
0.000000
  0
LINE
  8
21
 10
0.885000
 20
0.200000
 30
0.000000
 11
0.935000
 21
0.200000
 31
0.000000
  0
LINE
  8
21
 10
0.935000
 20
0.200000
 30
0.000000
 11
0.960000
 21
0.175000
 31
0.000000
  0
LINE
  8
21
 10
0.960000
 20
0.125000
 30
0.000000
 11
0.935000
 21
0.100000
 31
0.000000
  0
LINE
  8
21
 10
0.935000
 20
0.100000
 30
0.000000
 11
0.885000
 21
0.100000
 31
0.000000
  0
LINE
  8
21
 10
0.885000
 20
0.100000
 30
0.000000
 11
0.860000
 21
0.125000
 31
0.000000
  0
LINE
  8
21
 10
0.760000
 20
0.175000
 30
0.000000
 11
0.760000
 21
0.125000
 31
0.000000
  0
LINE
  8
21
 10
0.785000
 20
0.200000
 30
0.000000
 11
0.760000
 21
0.175000
 31
0.000000
  0
LINE
  8
21
 10
0.760000
 20
0.125000
 30
0.000000
 11
0.785000
 21
0.100000
 31
0.000000
  0
LINE
  8
21
 10
0.835000
 20
0.100000
 30
0.000000
 11
0.785000
 21
0.100000
 31
0.000000
  0
LINE
  8
21
 10
1.260000
 20
0.175000
 30
0.000000
 11
1.260000
 21
0.125000
 31
0.000000
  0
INSERT
  8
51
  2
RECT
 10
1.210000
 20
0.150000
 30
0.000000
 41
0.020000
 42
0.020000
 43
1.000000
 50
0.000000
  0
INSERT
  8
51
  2
RECT
 10
1.110000
 20
0.150000
 30
0.000000
 41
0.020000
 42
0.020000
 43
1.000000
 50
0.000000
  0
INSERT
  8
51
  2
RECT
 10
1.010000
 20
0.150000
 30
0.000000
 41
0.020000
 42
0.020000
 43
1.000000
 50
0.000000
  0
INSERT
  8
51
  2
RECT
 10
0.910000
 20
0.150000
 30
0.000000
 41
0.020000
 42
0.020000
 43
1.000000
 50
0.000000
  0
INSERT
  8
51
  2
RECT
 10
0.810000
 20
0.150000
 30
0.000000
 41
0.020000
 42
0.020000
 43
1.000000
 50
0.000000
  0
INSERT
  8
17
  2
ROUNDP
 10
0.810000
 20
0.150000
 30
0.000000
 41
0.074000
 42
0.074000
 43
1.000000
 50
90.000000
  0
INSERT
  8
17
  2
ROUNDP
 10
0.810000
 20
0.150000
 30
0.000000
 41
0.074000
 42
0.074000
 43
1.000000
 50
90.000000
  0
INSERT
  8
17
  2
ROUNDP
 10
0.910000
 20
0.150000
 30
0.000000
 41
0.074000
 42
0.074000
 43
1.000000
 50
90.000000
  0
INSERT
  8
17
  2
ROUNDP
 10
0.910000
 20
0.150000
 30
0.000000
 41
0.074000
 42
0.074000
 43
1.000000
 50
90.000000
  0
INSERT
  8
17
  2
ROUNDP
 10
1.010000
 20
0.150000
 30
0.000000
 41
0.074000
 42
0.074000
 43
1.000000
 50
90.000000
  0
INSERT
  8
17
  2
ROUNDP
 10
1.010000
 20
0.150000
 30
0.000000
 41
0.074000
 42
0.074000
 43
1.000000
 50
90.000000
  0
INSERT
  8
17
  2
ROUNDP
 10
1.110000
 20
0.150000
 30
0.000000
 41
0.074000
 42
0.074000
 43
1.000000
 50
90.000000
  0
INSERT
  8
17
  2
ROUNDP
 10
1.110000
 20
0.150000
 30
0.000000
 41
0.074000
 42
0.074000
 43
1.000000
 50
90.000000
  0
INSERT
  8
17
  2
ROUNDP
 10
1.210000
 20
0.150000
 30
0.000000
 41
0.074000
 42
0.074000
 43
1.000000
 50
90.000000
  0
INSERT
  8
17
  2
ROUNDP
 10
1.210000
 20
0.150000
 30
0.000000
 41
0.074000
 42
0.074000
 43
1.000000
 50
90.000000
  0
POINT
  8
23
 10
1.700000
 20
0.150000
 30
0.000000
  0
LINE
  8
21
 10
1.975000
 20
0.200000
 30
0.000000
 11
2.025000
 21
0.200000
 31
0.000000
  0
LINE
  8
21
 10
2.025000
 20
0.200000
 30
0.000000
 11
2.050000
 21
0.175000
 31
0.000000
  0
LINE
  8
21
 10
2.050000
 20
0.125000
 30
0.000000
 11
2.025000
 21
0.100000
 31
0.000000
  0
LINE
  8
21
 10
2.050000
 20
0.175000
 30
0.000000
 11
2.075000
 21
0.200000
 31
0.000000
  0
LINE
  8
21
 10
2.075000
 20
0.200000
 30
0.000000
 11
2.125000
 21
0.200000
 31
0.000000
  0
LINE
  8
21
 10
2.125000
 20
0.200000
 30
0.000000
 11
2.150000
 21
0.175000
 31
0.000000
  0
LINE
  8
21
 10
2.150000
 20
0.125000
 30
0.000000
 11
2.125000
 21
0.100000
 31
0.000000
  0
LINE
  8
21
 10
2.125000
 20
0.100000
 30
0.000000
 11
2.075000
 21
0.100000
 31
0.000000
  0
LINE
  8
21
 10
2.075000
 20
0.100000
 30
0.000000
 11
2.050000
 21
0.125000
 31
0.000000
  0
LINE
  8
21
 10
1.850000
 20
0.175000
 30
0.000000
 11
1.875000
 21
0.200000
 31
0.000000
  0
LINE
  8
21
 10
1.875000
 20
0.200000
 30
0.000000
 11
1.925000
 21
0.200000
 31
0.000000
  0
LINE
  8
21
 10
1.925000
 20
0.200000
 30
0.000000
 11
1.950000
 21
0.175000
 31
0.000000
  0
LINE
  8
21
 10
1.950000
 20
0.125000
 30
0.000000
 11
1.925000
 21
0.100000
 31
0.000000
  0
LINE
  8
21
 10
1.925000
 20
0.100000
 30
0.000000
 11
1.875000
 21
0.100000
 31
0.000000
  0
LINE
  8
21
 10
1.875000
 20
0.100000
 30
0.000000
 11
1.850000
 21
0.125000
 31
0.000000
  0
LINE
  8
21
 10
1.975000
 20
0.200000
 30
0.000000
 11
1.950000
 21
0.175000
 31
0.000000
  0
LINE
  8
21
 10
1.950000
 20
0.125000
 30
0.000000
 11
1.975000
 21
0.100000
 31
0.000000
  0
LINE
  8
21
 10
2.025000
 20
0.100000
 30
0.000000
 11
1.975000
 21
0.100000
 31
0.000000
  0
LINE
  8
21
 10
1.675000
 20
0.200000
 30
0.000000
 11
1.725000
 21
0.200000
 31
0.000000
  0
LINE
  8
21
 10
1.725000
 20
0.200000
 30
0.000000
 11
1.750000
 21
0.175000
 31
0.000000
  0
LINE
  8
21
 10
1.750000
 20
0.125000
 30
0.000000
 11
1.725000
 21
0.100000
 31
0.000000
  0
LINE
  8
21
 10
1.750000
 20
0.175000
 30
0.000000
 11
1.775000
 21
0.200000
 31
0.000000
  0
LINE
  8
21
 10
1.775000
 20
0.200000
 30
0.000000
 11
1.825000
 21
0.200000
 31
0.000000
  0
LINE
  8
21
 10
1.825000
 20
0.200000
 30
0.000000
 11
1.850000
 21
0.175000
 31
0.000000
  0
LINE
  8
21
 10
1.850000
 20
0.125000
 30
0.000000
 11
1.825000
 21
0.100000
 31
0.000000
  0
LINE
  8
21
 10
1.825000
 20
0.100000
 30
0.000000
 11
1.775000
 21
0.100000
 31
0.000000
  0
LINE
  8
21
 10
1.775000
 20
0.100000
 30
0.000000
 11
1.750000
 21
0.125000
 31
0.000000
  0
LINE
  8
21
 10
1.650000
 20
0.175000
 30
0.000000
 11
1.650000
 21
0.125000
 31
0.000000
  0
LINE
  8
21
 10
1.675000
 20
0.200000
 30
0.000000
 11
1.650000
 21
0.175000
 31
0.000000
  0
LINE
  8
21
 10
1.650000
 20
0.125000
 30
0.000000
 11
1.675000
 21
0.100000
 31
0.000000
  0
LINE
  8
21
 10
1.725000
 20
0.100000
 30
0.000000
 11
1.675000
 21
0.100000
 31
0.000000
  0
LINE
  8
21
 10
2.150000
 20
0.175000
 30
0.000000
 11
2.150000
 21
0.125000
 31
0.000000
  0
INSERT
  8
51
  2
RECT
 10
2.100000
 20
0.150000
 30
0.000000
 41
0.020000
 42
0.020000
 43
1.000000
 50
0.000000
  0
INSERT
  8
51
  2
RECT
 10
2.000000
 20
0.150000
 30
0.000000
 41
0.020000
 42
0.020000
 43
1.000000
 50
0.000000
  0
INSERT
  8
51
  2
RECT
 10
1.900000
 20
0.150000
 30
0.000000
 41
0.020000
 42
0.020000
 43
1.000000
 50
0.000000
  0
INSERT
  8
51
  2
RECT
 10
1.800000
 20
0.150000
 30
0.000000
 41
0.020000
 42
0.020000
 43
1.000000
 50
0.000000
  0
INSERT
  8
51
  2
RECT
 10
1.700000
 20
0.150000
 30
0.000000
 41
0.020000
 42
0.020000
 43
1.000000
 50
0.000000
  0
INSERT
  8
17
  2
ROUNDP
 10
1.700000
 20
0.150000
 30
0.000000
 41
0.074000
 42
0.074000
 43
1.000000
 50
90.000000
  0
INSERT
  8
17
  2
ROUNDP
 10
1.700000
 20
0.150000
 30
0.000000
 41
0.074000
 42
0.074000
 43
1.000000
 50
90.000000
  0
INSERT
  8
17
  2
ROUNDP
 10
1.800000
 20
0.150000
 30
0.000000
 41
0.074000
 42
0.074000
 43
1.000000
 50
90.000000
  0
INSERT
  8
17
  2
ROUNDP
 10
1.800000
 20
0.150000
 30
0.000000
 41
0.074000
 42
0.074000
 43
1.000000
 50
90.000000
  0
INSERT
  8
17
  2
ROUNDP
 10
1.900000
 20
0.150000
 30
0.000000
 41
0.074000
 42
0.074000
 43
1.000000
 50
90.000000
  0
INSERT
  8
17
  2
ROUNDP
 10
1.900000
 20
0.150000
 30
0.000000
 41
0.074000
 42
0.074000
 43
1.000000
 50
90.000000
  0
INSERT
  8
17
  2
ROUNDP
 10
2.000000
 20
0.150000
 30
0.000000
 41
0.074000
 42
0.074000
 43
1.000000
 50
90.000000
  0
INSERT
  8
17
  2
ROUNDP
 10
2.000000
 20
0.150000
 30
0.000000
 41
0.074000
 42
0.074000
 43
1.000000
 50
90.000000
  0
INSERT
  8
17
  2
ROUNDP
 10
2.100000
 20
0.150000
 30
0.000000
 41
0.074000
 42
0.074000
 43
1.000000
 50
90.000000
  0
INSERT
  8
17
  2
ROUNDP
 10
2.100000
 20
0.150000
 30
0.000000
 41
0.074000
 42
0.074000
 43
1.000000
 50
90.000000
  0
POINT
  8
23
 10
0.510000
 20
0.080000
 30
0.000000
  0
LINE
  8
21
 10
0.478504
 20
0.119370
 30
0.000000
 11
0.541496
 21
0.119370
 31
0.000000
  0
ARC
  8
21
 10
0.477520
 20
0.051457
 30
0.000000
 40
0.010871
 50
185.194429
 51
275.194429
  0
ARC
  8
21
 10
0.542480
 20
0.051457
 30
0.000000
 40
0.010871
 50
264.805571
 51
354.805571
  0
ARC
  8
21
 10
0.542490
 20
0.108555
 30
0.000000
 40
0.010861
 50
5.137076
 51
95.251782
  0
ARC
  8
21
 10
0.477520
 20
0.108543
 30
0.000000
 40
0.010871
 50
84.805571
 51
174.805571
  0
LINE
  8
21
 10
0.466693
 20
0.109528
 30
0.000000
 11
0.466693
 21
0.050472
 31
0.000000
  0
LINE
  8
21
 10
0.553307
 20
0.109528
 30
0.000000
 11
0.553307
 21
0.050472
 31
0.000000
  0
LINE
  8
21
 10
0.541496
 20
0.040630
 30
0.000000
 11
0.478504
 21
0.040630
 31
0.000000
  0
POINT
  8
23
 10
0.630000
 20
0.100000
 30
0.000000
  0
LINE
  8
51
 10
0.647008
 20
0.114016
 30
0.000000
 11
0.612992
 21
0.114016
 31
0.000000
  0
LINE
  8
51
 10
0.612992
 20
0.085984
 30
0.000000
 11
0.647008
 21
0.085984
 31
0.000000
  0
INSERT
  8
51
  2
RECT
 10
0.605000
 20
0.100000
 30
0.000000
 41
0.016000
 42
0.034000
 43
1.000000
 50
180.000000
  0
INSERT
  8
51
  2
RECT
 10
0.655000
 20
0.100000
 30
0.000000
 41
0.016000
 42
0.034000
 43
1.000000
 50
180.000000
  0
POINT
  8
23
 10
0.630000
 20
0.190000
 30
0.000000
  0
LINE
  8
51
 10
0.647008
 20
0.204016
 30
0.000000
 11
0.612992
 21
0.204016
 31
0.000000
  0
LINE
  8
51
 10
0.612992
 20
0.175984
 30
0.000000
 11
0.647008
 21
0.175984
 31
0.000000
  0
INSERT
  8
51
  2
RECT
 10
0.605000
 20
0.190000
 30
0.000000
 41
0.016000
 42
0.034000
 43
1.000000
 50
180.000000
  0
INSERT
  8
51
  2
RECT
 10
0.655000
 20
0.190000
 30
0.000000
 41
0.016000
 42
0.034000
 43
1.000000
 50
180.000000
  0
POINT
  8
23
 10
1.510000
 20
0.130000
 30
0.000000
  0
LINE
  8
51
 10
1.527008
 20
0.144016
 30
0.000000
 11
1.492992
 21
0.144016
 31
0.000000
  0
LINE
  8
51
 10
1.492992
 20
0.115984
 30
0.000000
 11
1.527008
 21
0.115984
 31
0.000000
  0
INSERT
  8
51
  2
RECT
 10
1.485000
 20
0.130000
 30
0.000000
 41
0.016000
 42
0.034000
 43
1.000000
 50
180.000000
  0
INSERT
  8
51
  2
RECT
 10
1.535000
 20
0.130000
 30
0.000000
 41
0.016000
 42
0.034000
 43
1.000000
 50
180.000000
  0
POINT
  8
23
 10
1.510000
 20
0.220000
 30
0.000000
  0
LINE
  8
51
 10
1.527008
 20
0.234016
 30
0.000000
 11
1.492992
 21
0.234016
 31
0.000000
  0
LINE
  8
51
 10
1.492992
 20
0.205984
 30
0.000000
 11
1.527008
 21
0.205984
 31
0.000000
  0
INSERT
  8
51
  2
RECT
 10
1.485000
 20
0.220000
 30
0.000000
 41
0.016000
 42
0.034000
 43
1.000000
 50
180.000000
  0
INSERT
  8
51
  2
RECT
 10
1.535000
 20
0.220000
 30
0.000000
 41
0.016000
 42
0.034000
 43
1.000000
 50
180.000000
  0
POINT
  8
23
 10
1.130000
 20
0.700000
 30
0.000000
  0
LINE
  8
51
 10
1.112992
 20
0.685984
 30
0.000000
 11
1.147008
 21
0.685984
 31
0.000000
  0
LINE
  8
51
 10
1.147008
 20
0.714016
 30
0.000000
 11
1.112992
 21
0.714016
 31
0.000000
  0
INSERT
  8
51
  2
RECT
 10
1.155000
 20
0.700000
 30
0.000000
 41
0.016000
 42
0.034000
 43
1.000000
 50
0.000000
  0
INSERT
  8
51
  2
RECT
 10
1.105000
 20
0.700000
 30
0.000000
 41
0.016000
 42
0.034000
 43
1.000000
 50
0.000000
  0
POINT
  8
23
 10
2.060000
 20
0.690000
 30
0.000000
  0
LINE
  8
51
 10
2.042992
 20
0.675984
 30
0.000000
 11
2.077008
 21
0.675984
 31
0.000000
  0
LINE
  8
51
 10
2.077008
 20
0.704016
 30
0.000000
 11
2.042992
 21
0.704016
 31
0.000000
  0
INSERT
  8
51
  2
RECT
 10
2.085000
 20
0.690000
 30
0.000000
 41
0.016000
 42
0.034000
 43
1.000000
 50
0.000000
  0
INSERT
  8
51
  2
RECT
 10
2.035000
 20
0.690000
 30
0.000000
 41
0.016000
 42
0.034000
 43
1.000000
 50
0.000000
  0
POINT
  8
24
 10
2.270000
 20
0.340000
 30
0.000000
  0
POINT
  8
23
 10
0.100000
 20
0.700000
 30
0.000000
  0
CIRCLE
  8
20
 10
0.100000
 20
0.700000
 30
0.000000
 40
0.065000
  0
POINT
  8
23
 10
2.300000
 20
0.100000
 30
0.000000
  0
CIRCLE
  8
20
 10
2.300000
 20
0.100000
 30
0.000000
 40
0.065000
  0
POINT
  8
23
 10
1.220000
 20
0.520000
 30
0.000000
  0
LINE
  8
21
 10
1.243622
 20
0.457008
 30
0.000000
 11
1.196378
 21
0.457008
 31
0.000000
  0
LINE
  8
21
 10
1.121575
 20
0.508189
 30
0.000000
 11
1.121575
 21
0.531811
 31
0.000000
  0
LINE
  8
21
 10
1.196378
 20
0.582992
 30
0.000000
 11
1.243622
 21
0.582992
 31
0.000000
  0
LINE
  8
21
 10
1.318425
 20
0.508189
 30
0.000000
 11
1.318425
 21
0.531811
 31
0.000000
  0
POINT
  8
23
 10
2.150000
 20
0.520000
 30
0.000000
  0
LINE
  8
21
 10
2.173622
 20
0.457008
 30
0.000000
 11
2.126378
 21
0.457008
 31
0.000000
  0
LINE
  8
21
 10
2.051575
 20
0.508189
 30
0.000000
 11
2.051575
 21
0.531811
 31
0.000000
  0
LINE
  8
21
 10
2.126378
 20
0.582992
 30
0.000000
 11
2.173622
 21
0.582992
 31
0.000000
  0
LINE
  8
21
 10
2.248425
 20
0.508189
 30
0.000000
 11
2.248425
 21
0.531811
 31
0.000000
  0
LINE
  8
19
 10
1.330000
 20
0.080000
 30
0.000000
 11
1.363783
 21
0.080000
 31
0.000000
  0
INSERT
  8
18
  2
SQUAREV
 10
1.920000
 20
0.290000
 30
0.000000
 41
0.035622
 42
0.035622
 43
1.000000
 50
0.000000
  0
INSERT
  8
18
  2
SQUAREV
 10
1.920000
 20
0.290000
 30
0.000000
 41
0.035622
 42
0.035622
 43
1.000000
 50
0.000000
  0
INSERT
  8
18
  2
SQUAREV
 10
1.010000
 20
0.270000
 30
0.000000
 41
0.035622
 42
0.035622
 43
1.000000
 50
0.000000
  0
INSERT
  8
18
  2
SQUAREV
 10
1.010000
 20
0.270000
 30
0.000000
 41
0.035622
 42
0.035622
 43
1.000000
 50
0.000000
  0
INSERT
  8
18
  2
SQUAREV
 10
1.310000
 20
0.340000
 30
0.000000
 41
0.035622
 42
0.035622
 43
1.000000
 50
0.000000
  0
INSERT
  8
18
  2
SQUAREV
 10
1.310000
 20
0.340000
 30
0.000000
 41
0.035622
 42
0.035622
 43
1.000000
 50
0.000000
  0
INSERT
  8
18
  2
ROUNDV
 10
0.880000
 20
0.730000
 30
0.000000
 41
0.035622
 42
0.035622
 43
1.000000
 50
0.000000
  0
INSERT
  8
18
  2
ROUNDV
 10
0.880000
 20
0.730000
 30
0.000000
 41
0.035622
 42
0.035622
 43
1.000000
 50
0.000000
  0
INSERT
  8
18
  2
ROUNDV
 10
1.510000
 20
0.680000
 30
0.000000
 41
0.035622
 42
0.035622
 43
1.000000
 50
0.000000
  0
INSERT
  8
18
  2
ROUNDV
 10
1.510000
 20
0.680000
 30
0.000000
 41
0.035622
 42
0.035622
 43
1.000000
 50
0.000000
  0
INSERT
  8
18
  2
SQUAREV
 10
1.550000
 20
0.540000
 30
0.000000
 41
0.035622
 42
0.035622
 43
1.000000
 50
0.000000
  0
INSERT
  8
18
  2
SQUAREV
 10
1.550000
 20
0.540000
 30
0.000000
 41
0.035622
 42
0.035622
 43
1.000000
 50
0.000000
  0
INSERT
  8
18
  2
SQUAREV
 10
1.480000
 20
0.550000
 30
0.000000
 41
0.035622
 42
0.035622
 43
1.000000
 50
0.000000
  0
INSERT
  8
18
  2
SQUAREV
 10
1.480000
 20
0.550000
 30
0.000000
 41
0.035622
 42
0.035622
 43
1.000000
 50
0.000000
  0
LINE
  8
19
 10
1.396217
 20
0.080000
 30
0.000000
 11
1.426535
 21
0.080000
 31
0.000000
  0
INSERT
  8
18
  2
SQUAREV
 10
1.770000
 20
0.730000
 30
0.000000
 41
0.035622
 42
0.035622
 43
1.000000
 50
0.000000
  0
INSERT
  8
18
  2
SQUAREV
 10
1.770000
 20
0.730000
 30
0.000000
 41
0.035622
 42
0.035622
 43
1.000000
 50
0.000000
  0
INSERT
  8
18
  2
SQUAREV
 10
1.530000
 20
0.450000
 30
0.000000
 41
0.035622
 42
0.035622
 43
1.000000
 50
0.000000
  0
INSERT
  8
18
  2
SQUAREV
 10
1.530000
 20
0.450000
 30
0.000000
 41
0.035622
 42
0.035622
 43
1.000000
 50
0.000000
  0
ENDSEC
  0
EOF
